<svg xmlns="http://www.w3.org/2000/svg" xmlns:xlink="http://www.w3.org/1999/xlink" width="500" zoomAndPan="magnify" viewBox="0 0 375 149.999998" height="200" preserveAspectRatio="xMidYMid meet" version="1.0"><defs><clipPath id="30b62c9ee3"><path d="M 9 8 L 60 8 L 60 51 L 9 51 Z M 9 8 " clip-rule="nonzero"/></clipPath><clipPath id="946e95a1ea"><path d="M 0 36.929688 L 49.414062 -2.34375 L 79.90625 36.023438 L 30.496094 75.296875 Z M 0 36.929688 " clip-rule="nonzero"/></clipPath><clipPath id="d1dc6c4f34"><path d="M 0 36.929688 L 49.414062 -2.34375 L 79.90625 36.023438 L 30.496094 75.296875 Z M 0 36.929688 " clip-rule="nonzero"/></clipPath><clipPath id="8ea514468e"><path d="M 26 25 L 58 25 L 58 53 L 26 53 Z M 26 25 " clip-rule="nonzero"/></clipPath><clipPath id="fc62f8318c"><path d="M 0 36.929688 L 49.414062 -2.34375 L 79.90625 36.023438 L 30.496094 75.296875 Z M 0 36.929688 " clip-rule="nonzero"/></clipPath><clipPath id="b116deaca8"><path d="M 0 36.929688 L 49.414062 -2.34375 L 79.90625 36.023438 L 30.496094 75.296875 Z M 0 36.929688 " clip-rule="nonzero"/></clipPath><clipPath id="838dd2ed06"><path d="M 43 42 L 58 42 L 58 58 L 43 58 Z M 43 42 " clip-rule="nonzero"/></clipPath><clipPath id="53dd00a042"><path d="M 0 36.929688 L 49.414062 -2.34375 L 79.90625 36.023438 L 30.496094 75.296875 Z M 0 36.929688 " clip-rule="nonzero"/></clipPath><clipPath id="465989a997"><path d="M 0 36.929688 L 49.414062 -2.34375 L 79.90625 36.023438 L 30.496094 75.296875 Z M 0 36.929688 " clip-rule="nonzero"/></clipPath><clipPath id="b7f40f1696"><path d="M 33.148438 36.03125 L 111 36.03125 L 111 127.367188 L 33.148438 127.367188 Z M 33.148438 36.03125 " clip-rule="nonzero"/></clipPath><clipPath id="2297b861b1"><path d="M 101 63.101562 L 175 63.101562 L 175 127.703125 L 101 127.703125 Z M 101 63.101562 " clip-rule="nonzero"/></clipPath><clipPath id="a3e60e74f7"><path d="M 116 79 L 150 79 L 150 112 L 116 112 Z M 116 79 " clip-rule="nonzero"/></clipPath><clipPath id="3bba0e8b86"><path d="M 120.902344 75.382812 L 153.285156 83.621094 L 145.046875 116.007812 L 112.664062 107.769531 Z M 120.902344 75.382812 " clip-rule="nonzero"/></clipPath><clipPath id="089fb5de29"><path d="M 120.902344 75.382812 L 153.285156 83.621094 L 145.046875 116.007812 L 112.664062 107.769531 Z M 120.902344 75.382812 " clip-rule="nonzero"/></clipPath><clipPath id="d98191aaa9"><path d="M 168 56.296875 L 232.390625 56.296875 L 232.390625 127.582031 L 168 127.582031 Z M 168 56.296875 " clip-rule="nonzero"/></clipPath><clipPath id="f995b9b5f0"><path d="M 212.007812 39.632812 L 285.523438 39.632812 L 285.523438 128 L 212.007812 128 Z M 212.007812 39.632812 " clip-rule="nonzero"/></clipPath><clipPath id="d624df147f"><path d="M 271 54.679688 L 300.945312 54.679688 L 300.945312 127.453125 L 271 127.453125 Z M 271 54.679688 " clip-rule="nonzero"/></clipPath><clipPath id="fd7c1ed062"><path d="M 299.039062 47.820312 L 371 47.820312 L 371 128 L 299.039062 128 Z M 299.039062 47.820312 " clip-rule="nonzero"/></clipPath></defs><g clip-path="url(#30b62c9ee3)"><g clip-path="url(#946e95a1ea)"><g clip-path="url(#d1dc6c4f34)"><path fill="#1c4f74" d="M 55.503906 8.507812 C 44.398438 7.238281 33.445312 10.355469 24.648438 17.34375 C 15.855469 24.332031 10.347656 34.300781 9.078125 45.40625 C 8.78125 47.976562 10.570312 50.226562 13.140625 50.519531 C 14.425781 50.664062 15.628906 50.292969 16.550781 49.5625 C 17.46875 48.828125 18.105469 47.738281 18.253906 46.453125 C 19.199219 37.777344 23.527344 30 30.378906 24.554688 C 37.230469 19.109375 45.785156 16.644531 54.453125 17.683594 C 57.023438 17.976562 59.273438 16.191406 59.566406 13.621094 C 59.859375 11.050781 58.03125 8.75 55.503906 8.507812 Z M 55.503906 8.507812 " fill-opacity="1" fill-rule="nonzero"/></g></g></g><g clip-path="url(#8ea514468e)"><g clip-path="url(#fc62f8318c)"><g clip-path="url(#b116deaca8)"><path fill="#1c4f74" d="M 26.367188 47.429688 C 26.074219 50 27.863281 52.25 30.433594 52.542969 C 31.71875 52.691406 32.921875 52.316406 33.84375 51.585938 C 34.761719 50.851562 35.398438 49.765625 35.546875 48.480469 C 36.511719 40.035156 44.128906 33.980469 52.480469 34.9375 C 55 35.269531 57.300781 33.441406 57.59375 30.871094 C 57.886719 28.304688 56.097656 26.054688 53.53125 25.761719 C 40.082031 24.269531 27.910156 33.941406 26.367188 47.429688 Z M 26.367188 47.429688 " fill-opacity="1" fill-rule="nonzero"/></g></g></g><g clip-path="url(#838dd2ed06)"><g clip-path="url(#53dd00a042)"><g clip-path="url(#465989a997)"><path fill="#1c4f74" d="M 56.414062 45.660156 C 58.882812 48.765625 58.367188 53.285156 55.257812 55.753906 C 52.152344 58.222656 47.632812 57.707031 45.164062 54.597656 C 42.695312 51.492188 43.214844 46.972656 46.320312 44.503906 C 49.425781 42.035156 53.945312 42.550781 56.414062 45.660156 " fill-opacity="1" fill-rule="nonzero"/></g></g></g><g clip-path="url(#b7f40f1696)"><path fill="#1c4f74" d="M 36.621094 111.929688 C 38.4375 116.371094 41.308594 120.039062 44.925781 122.542969 C 49.535156 125.734375 54.875 126.636719 59.492188 127.105469 C 63.371094 127.496094 67.457031 127.6875 71.984375 127.6875 C 72.71875 127.6875 73.476562 127.683594 74.238281 127.671875 C 79.992188 127.59375 85.324219 126.917969 90.085938 125.652344 C 94.300781 124.539062 98.039062 122.992188 101.191406 121.054688 C 105.035156 118.695312 107.75 115.875 109.25 112.671875 C 111.097656 108.742188 111.019531 104.082031 109.054688 100.507812 C 107.246094 97.21875 103.917969 94.863281 99.59375 93.773438 C 100.671875 92.960938 101.667969 92.003906 102.554688 90.875 C 104.832031 87.964844 105.90625 84.339844 105.503906 80.929688 C 105.0625 77.214844 102.851562 73.691406 99.542969 71.359375 C 102.960938 69.808594 105.566406 67.515625 107.316406 64.507812 C 109.9375 60 110.328125 54.296875 108.359375 49.25 C 106.507812 44.503906 102.78125 40.9375 97.59375 38.9375 C 93.425781 37.335938 88.535156 36.445312 82.210938 36.128906 C 80.925781 36.0625 79.589844 36.03125 78.246094 36.03125 C 74.011719 36.03125 69.363281 36.351562 64.039062 37.007812 C 59.589844 37.558594 54.890625 38.277344 50.625 40.441406 C 46.929688 42.3125 43.78125 45.097656 41.515625 48.5 C 38.640625 52.820312 37.265625 57.859375 36.101562 62.648438 C 34.761719 68.195312 33.886719 74.09375 33.503906 80.175781 C 33.15625 85.769531 33.214844 91.660156 33.675781 97.691406 C 33.980469 101.714844 34.59375 106.972656 36.621094 111.929688 Z M 34.8125 80.257812 C 35.179688 74.429688 36.003906 68.632812 37.375 62.957031 C 38.527344 58.203125 39.867188 53.335938 42.605469 49.226562 C 44.769531 45.976562 47.738281 43.371094 51.21875 41.609375 C 55.28125 39.546875 59.726562 38.863281 64.199219 38.308594 C 68.855469 37.734375 73.550781 37.339844 78.246094 37.339844 C 79.546875 37.339844 80.84375 37.371094 82.144531 37.433594 C 87.167969 37.6875 92.398438 38.34375 97.121094 40.160156 C 101.671875 41.914062 105.34375 45.125 107.136719 49.726562 C 108.929688 54.320312 108.675781 59.566406 106.183594 63.851562 C 103.839844 67.871094 99.972656 70.203125 95.566406 71.382812 C 91.710938 72.410156 87.648438 72.914062 83.613281 72.914062 C 81.808594 72.914062 80.011719 72.8125 78.242188 72.613281 C 75.515625 72.304688 72.828125 71.664062 70.296875 70.601562 C 70.214844 70.566406 70.136719 70.550781 70.066406 70.550781 C 69.507812 70.550781 69.328125 71.519531 69.96875 71.789062 C 74.109375 73.523438 78.632812 74.125 83.128906 74.125 C 84.582031 74.125 86.03125 74.0625 87.460938 73.957031 C 90.527344 73.726562 93.585938 73.234375 96.542969 72.390625 C 97.054688 72.246094 97.554688 72.082031 98.050781 71.90625 C 98.089844 71.953125 98.136719 71.996094 98.195312 72.035156 C 101.363281 74.03125 103.753906 77.3125 104.203125 81.082031 C 104.582031 84.292969 103.496094 87.546875 101.519531 90.066406 C 97.015625 95.828125 89.042969 96.871094 82.195312 96.871094 C 82.113281 96.871094 82.03125 96.871094 81.945312 96.871094 C 77.4375 96.855469 72.761719 96.574219 68.480469 95.066406 C 68.40625 95.039062 68.335938 95.027344 68.269531 95.027344 C 67.675781 95.027344 67.484375 96.019531 68.152344 96.253906 C 72.230469 97.691406 76.660156 98.007812 80.957031 98.089844 C 81.417969 98.101562 81.882812 98.105469 82.347656 98.105469 C 86 98.105469 89.714844 97.792969 93.214844 96.761719 C 94.855469 96.28125 96.445312 95.613281 97.910156 94.75 C 101.941406 95.46875 105.871094 97.4375 107.90625 101.136719 C 109.734375 104.460938 109.660156 108.714844 108.066406 112.113281 C 106.488281 115.476562 103.625 118.023438 100.507812 119.9375 C 97.1875 121.976562 93.507812 123.394531 89.75 124.386719 C 84.699219 125.726562 79.433594 126.292969 74.21875 126.363281 C 73.476562 126.371094 72.730469 126.378906 71.984375 126.378906 C 67.859375 126.378906 63.722656 126.214844 59.621094 125.800781 C 54.667969 125.300781 49.839844 124.351562 45.671875 121.464844 C 42.101562 118.996094 39.46875 115.429688 37.832031 111.433594 C 36.03125 107.03125 35.339844 102.300781 34.980469 97.589844 C 34.539062 91.824219 34.453125 86.03125 34.8125 80.257812 Z M 34.8125 80.257812 " fill-opacity="1" fill-rule="nonzero"/></g><path fill="#c8e1ff" d="M 37.832031 111.433594 C 39.46875 115.429688 42.101562 118.996094 45.671875 121.464844 C 49.839844 124.351562 54.667969 125.300781 59.621094 125.800781 C 63.722656 126.214844 67.859375 126.378906 71.984375 126.378906 C 72.730469 126.378906 73.476562 126.371094 74.21875 126.363281 C 79.433594 126.292969 84.703125 125.726562 89.75 124.386719 C 93.507812 123.394531 97.1875 121.976562 100.507812 119.9375 C 103.625 118.023438 106.488281 115.476562 108.066406 112.113281 C 109.660156 108.71875 109.734375 104.460938 107.90625 101.140625 C 105.871094 97.4375 101.941406 95.46875 97.914062 94.753906 C 96.445312 95.613281 94.855469 96.28125 93.214844 96.761719 C 89.714844 97.792969 86 98.105469 82.347656 98.105469 C 81.882812 98.105469 81.417969 98.101562 80.957031 98.09375 C 76.660156 98.007812 72.230469 97.691406 68.152344 96.253906 C 67.484375 96.019531 67.679688 95.03125 68.273438 95.03125 C 68.335938 95.03125 68.40625 95.042969 68.480469 95.066406 C 72.761719 96.574219 77.4375 96.855469 81.949219 96.871094 C 82.03125 96.871094 82.113281 96.875 82.195312 96.875 C 89.042969 96.875 97.015625 95.828125 101.519531 90.070312 C 103.496094 87.546875 104.582031 84.292969 104.203125 81.085938 C 103.753906 77.3125 101.363281 74.03125 98.195312 72.035156 C 98.136719 71.996094 98.089844 71.953125 98.050781 71.90625 C 97.554688 72.082031 97.054688 72.246094 96.542969 72.390625 C 93.585938 73.234375 90.527344 73.726562 87.460938 73.957031 C 86.03125 74.0625 84.582031 74.125 83.128906 74.125 C 78.636719 74.125 74.109375 73.527344 69.96875 71.789062 C 69.328125 71.519531 69.507812 70.550781 70.066406 70.550781 C 70.140625 70.550781 70.214844 70.566406 70.296875 70.601562 C 72.828125 71.664062 75.515625 72.308594 78.242188 72.613281 C 80.011719 72.8125 81.808594 72.914062 83.613281 72.914062 C 87.648438 72.914062 91.710938 72.410156 95.566406 71.382812 C 99.972656 70.203125 103.839844 67.875 106.183594 63.851562 C 108.675781 59.566406 108.929688 54.320312 107.136719 49.726562 C 105.34375 45.125 101.675781 41.914062 97.121094 40.160156 C 92.398438 38.347656 87.167969 37.6875 82.144531 37.4375 C 80.84375 37.371094 79.546875 37.339844 78.246094 37.339844 C 73.550781 37.339844 68.855469 37.734375 64.199219 38.308594 C 59.726562 38.863281 55.28125 39.550781 51.21875 41.609375 C 47.738281 43.371094 44.769531 45.976562 42.605469 49.226562 C 39.867188 53.339844 38.527344 58.207031 37.375 62.957031 C 36.003906 68.632812 35.179688 74.433594 34.8125 80.257812 C 34.453125 86.03125 34.542969 91.828125 34.980469 97.59375 C 35.339844 102.304688 36.035156 107.035156 37.832031 111.433594 Z M 37.832031 111.433594 " fill-opacity="1" fill-rule="nonzero"/><g clip-path="url(#2297b861b1)"><path fill="#1c4f74" d="M 109.097656 118.753906 C 113.105469 122.878906 118.257812 125.007812 121.875 126.070312 C 125.402344 127.101562 129.09375 127.625 132.847656 127.625 C 138.464844 127.625 143.941406 126.429688 148.6875 124.164062 C 148.777344 124.121094 148.863281 124.066406 148.9375 124.003906 C 149.785156 124.835938 150.734375 125.507812 151.765625 126.007812 C 153.609375 126.894531 155.832031 127.363281 158.191406 127.363281 C 159.304688 127.363281 160.429688 127.261719 161.546875 127.0625 C 165.34375 126.382812 168.363281 124.675781 170.285156 122.128906 C 173.070312 118.433594 173.832031 113.738281 174.164062 110.53125 C 175.039062 102.113281 174.625 93.007812 172.859375 81.878906 C 172.261719 78.101562 171.355469 73.734375 169.195312 69.960938 C 167.855469 67.621094 164.882812 63.625 160.003906 63.148438 C 159.6875 63.117188 159.363281 63.101562 159.046875 63.101562 C 155.839844 63.101562 152.585938 64.730469 150.125 67.566406 C 150.019531 67.6875 149.914062 67.8125 149.808594 67.941406 C 149.804688 67.9375 149.796875 67.933594 149.792969 67.929688 C 148.984375 67.429688 148.214844 67 147.441406 66.621094 C 142.816406 64.332031 137.933594 63.125 133.3125 63.125 C 133.230469 63.125 133.148438 63.125 133.066406 63.125 C 127.601562 63.175781 122.34375 64.660156 117.863281 67.417969 C 111.863281 71.113281 107.007812 77.425781 104.199219 85.195312 C 101.386719 92.984375 101.003906 101.160156 103.128906 108.214844 C 104.378906 112.375 106.445312 116.019531 109.097656 118.753906 Z M 105.347656 85.609375 C 107.816406 78.78125 112.242188 72.3125 118.503906 68.457031 C 122.871094 65.769531 127.960938 64.390625 133.078125 64.34375 C 133.15625 64.34375 133.234375 64.34375 133.3125 64.34375 C 138.035156 64.34375 142.679688 65.625 146.902344 67.714844 C 147.671875 68.09375 148.421875 68.515625 149.152344 68.96875 C 147.707031 71.054688 146.703125 73.464844 145.941406 75.886719 C 145.609375 76.960938 145.324219 78.046875 145.078125 79.144531 C 144.980469 79.574219 145.34375 79.859375 145.683594 79.859375 C 145.90625 79.859375 146.121094 79.734375 146.183594 79.445312 C 146.980469 75.902344 148.15625 72.171875 150.363281 69.214844 C 150.410156 69.171875 150.445312 69.121094 150.476562 69.066406 C 150.660156 68.828125 150.847656 68.59375 151.046875 68.367188 C 153.078125 66.023438 155.917969 64.320312 159.046875 64.320312 C 159.324219 64.320312 159.605469 64.335938 159.886719 64.363281 C 163.5625 64.722656 166.382812 67.5 168.136719 70.566406 C 170.144531 74.074219 171.027344 78.113281 171.65625 82.066406 C 173.132812 91.394531 173.929688 100.980469 172.953125 110.40625 C 172.554688 114.253906 171.683594 118.246094 169.308594 121.394531 C 167.386719 123.945312 164.421875 125.308594 161.332031 125.863281 C 160.316406 126.042969 159.257812 126.144531 158.195312 126.144531 C 156.15625 126.144531 154.097656 125.777344 152.296875 124.90625 C 151.289062 124.421875 150.417969 123.773438 149.664062 123.003906 C 149.613281 122.914062 149.539062 122.832031 149.453125 122.773438 C 147.90625 121.105469 146.878906 118.949219 146.21875 116.765625 C 145.9375 115.828125 145.710938 114.878906 145.507812 113.921875 C 145.445312 113.632812 145.234375 113.507812 145.011719 113.507812 C 144.671875 113.507812 144.308594 113.792969 144.402344 114.226562 C 145.0625 117.363281 146.097656 120.585938 148.164062 123.0625 C 143.445312 125.3125 138.140625 126.40625 132.851562 126.40625 C 129.234375 126.40625 125.628906 125.894531 122.222656 124.898438 C 117.726562 123.578125 113.265625 121.292969 109.976562 117.902344 C 107.285156 115.132812 105.40625 111.546875 104.296875 107.863281 C 102.113281 100.613281 102.796875 92.675781 105.347656 85.609375 Z M 105.347656 85.609375 " fill-opacity="1" fill-rule="nonzero"/></g><path fill="#1c4f74" d="M 123.140625 94.164062 C 124.984375 95.023438 126.699219 96.128906 128.148438 97.566406 C 129.535156 98.945312 130.621094 100.578125 131.472656 102.332031 C 130.808594 103.375 130.222656 104.476562 129.746094 105.648438 C 129.625 105.953125 129.878906 106.304688 130.164062 106.386719 C 130.222656 106.402344 130.277344 106.410156 130.328125 106.410156 C 130.59375 106.410156 130.800781 106.21875 130.902344 105.96875 C 132.296875 102.527344 134.710938 99.621094 137.660156 97.394531 C 137.734375 97.339844 137.789062 97.277344 137.828125 97.210938 C 138.851562 98.007812 139.941406 98.722656 141.09375 99.3125 C 141.1875 99.363281 141.285156 99.382812 141.375 99.382812 C 141.921875 99.382812 142.285156 98.582031 141.699219 98.277344 C 139.882812 97.34375 138.226562 96.117188 136.761719 94.695312 C 135.3125 93.285156 134.03125 91.671875 133.210938 89.8125 C 133.199219 89.792969 133.1875 89.773438 133.175781 89.753906 C 133.910156 88.464844 134.5625 87.125 135.117188 85.738281 C 135.289062 85.304688 134.933594 85.019531 134.5625 85.019531 C 134.320312 85.019531 134.074219 85.140625 133.960938 85.417969 C 132.476562 89.132812 130.25 92.515625 127.472656 95.386719 C 126.320312 94.496094 125.066406 93.746094 123.746094 93.128906 C 123.652344 93.085938 123.5625 93.066406 123.472656 93.066406 C 122.910156 93.066406 122.53125 93.882812 123.140625 94.164062 Z M 132.449219 91.046875 C 133.25 92.605469 134.390625 94.09375 135.914062 95.570312 C 136.226562 95.875 136.546875 96.167969 136.871094 96.453125 C 136.863281 96.460938 136.855469 96.472656 136.847656 96.480469 C 135.054688 97.847656 133.5 99.414062 132.234375 101.132812 C 131.324219 99.414062 130.242188 97.925781 129.007812 96.699219 C 128.820312 96.515625 128.628906 96.332031 128.429688 96.152344 C 129.953125 94.566406 131.296875 92.859375 132.449219 91.046875 Z M 132.449219 91.046875 " fill-opacity="1" fill-rule="nonzero"/><path fill="#c8e1ff" d="M 109.976562 117.902344 C 113.265625 121.292969 117.726562 123.578125 122.21875 124.898438 C 125.625 125.894531 129.234375 126.40625 132.851562 126.40625 C 138.140625 126.40625 143.445312 125.3125 148.164062 123.0625 C 146.097656 120.585938 145.0625 117.363281 144.402344 114.226562 C 144.308594 113.792969 144.671875 113.511719 145.011719 113.511719 C 145.234375 113.511719 145.445312 113.632812 145.507812 113.921875 C 145.710938 114.878906 145.9375 115.828125 146.21875 116.765625 C 146.878906 118.949219 147.90625 121.105469 149.449219 122.773438 C 149.539062 122.835938 149.609375 122.914062 149.664062 123.003906 C 150.417969 123.773438 151.289062 124.421875 152.296875 124.910156 C 154.097656 125.777344 156.15625 126.144531 158.191406 126.144531 C 159.257812 126.144531 160.316406 126.042969 161.332031 125.863281 C 164.421875 125.308594 167.386719 123.945312 169.308594 121.394531 C 171.683594 118.246094 172.554688 114.253906 172.953125 110.40625 C 173.929688 100.980469 173.132812 91.394531 171.652344 82.070312 C 171.027344 78.113281 170.144531 74.074219 168.136719 70.566406 C 166.382812 67.5 163.5625 64.722656 159.886719 64.363281 C 159.601562 64.335938 159.324219 64.320312 159.042969 64.320312 C 155.917969 64.320312 153.078125 66.023438 151.042969 68.367188 C 150.847656 68.59375 150.65625 68.828125 150.476562 69.066406 C 150.445312 69.125 150.40625 69.171875 150.363281 69.214844 C 148.15625 72.171875 146.980469 75.902344 146.183594 79.445312 C 146.121094 79.734375 145.90625 79.859375 145.679688 79.859375 C 145.34375 79.859375 144.980469 79.574219 145.078125 79.144531 C 145.320312 78.046875 145.605469 76.960938 145.941406 75.890625 C 146.699219 73.464844 147.703125 71.058594 149.152344 68.96875 C 148.421875 68.515625 147.671875 68.09375 146.902344 67.714844 C 142.679688 65.625 138.035156 64.34375 133.3125 64.34375 C 133.234375 64.34375 133.15625 64.34375 133.078125 64.34375 C 127.960938 64.394531 122.871094 65.769531 118.503906 68.457031 C 112.242188 72.3125 107.816406 78.78125 105.347656 85.609375 C 102.792969 92.675781 102.113281 100.613281 104.296875 107.863281 C 105.402344 111.546875 107.285156 115.132812 109.976562 117.902344 Z M 123.472656 93.066406 C 123.5625 93.066406 123.652344 93.085938 123.746094 93.128906 C 125.066406 93.746094 126.320312 94.496094 127.472656 95.386719 C 130.25 92.515625 132.476562 89.132812 133.960938 85.417969 C 134.074219 85.140625 134.320312 85.019531 134.5625 85.019531 C 134.933594 85.019531 135.289062 85.304688 135.117188 85.738281 C 134.5625 87.125 133.910156 88.460938 133.175781 89.753906 C 133.1875 89.773438 133.199219 89.792969 133.210938 89.8125 C 134.03125 91.671875 135.3125 93.285156 136.761719 94.695312 C 138.226562 96.117188 139.882812 97.34375 141.699219 98.277344 C 142.285156 98.582031 141.921875 99.382812 141.375 99.382812 C 141.285156 99.382812 141.1875 99.363281 141.09375 99.3125 C 139.941406 98.71875 138.851562 98.007812 137.828125 97.210938 C 137.789062 97.277344 137.734375 97.339844 137.660156 97.394531 C 134.710938 99.621094 132.296875 102.527344 130.902344 105.96875 C 130.800781 106.21875 130.59375 106.410156 130.328125 106.410156 C 130.277344 106.410156 130.222656 106.402344 130.164062 106.386719 C 129.878906 106.304688 129.625 105.953125 129.746094 105.648438 C 130.222656 104.476562 130.808594 103.375 131.472656 102.332031 C 130.617188 100.578125 129.535156 98.945312 128.148438 97.566406 C 126.699219 96.128906 124.984375 95.023438 123.140625 94.164062 C 122.53125 93.882812 122.910156 93.066406 123.472656 93.066406 Z M 123.472656 93.066406 " fill-opacity="1" fill-rule="nonzero"/><g clip-path="url(#a3e60e74f7)"><g clip-path="url(#3bba0e8b86)"><g clip-path="url(#089fb5de29)"><path fill="#1c4f74" d="M 149.113281 99.769531 C 136.425781 98.917969 134.15625 100.265625 128.839844 111.820312 C 129.691406 99.132812 128.34375 96.863281 116.789062 91.546875 C 129.480469 92.398438 131.746094 91.050781 137.0625 79.496094 C 136.210938 92.1875 137.558594 94.457031 149.113281 99.769531 Z M 149.113281 99.769531 " fill-opacity="1" fill-rule="nonzero"/></g></g></g><g clip-path="url(#d98191aaa9)"><path fill="#1c4f74" d="M 229.894531 119.476562 C 231.234375 117.328125 231.976562 114.519531 232.09375 111.128906 C 232.210938 107.945312 231.5625 104.984375 230.21875 102.574219 C 228.765625 99.960938 226.402344 97.871094 223.390625 96.539062 C 221.765625 95.820312 219.992188 95.320312 218.101562 95.050781 C 218.285156 94.929688 218.46875 94.808594 218.648438 94.691406 C 218.960938 94.484375 219.273438 94.277344 219.589844 94.078125 C 221.304688 93 223.28125 91.660156 224.929688 89.917969 C 226.253906 88.519531 227.3125 86.871094 228.070312 85.019531 C 229.386719 81.8125 229.859375 78.078125 229.4375 74.226562 C 229.019531 70.445312 227.757812 66.925781 225.78125 64.054688 C 223.582031 60.855469 220.300781 58.5625 216.289062 57.425781 C 212.789062 56.433594 209.132812 56.296875 205.707031 56.296875 C 205.355469 56.296875 205.003906 56.296875 204.65625 56.300781 C 200.273438 56.324219 195.308594 56.355469 190.460938 56.832031 C 186.800781 57.195312 182.585938 57.722656 178.847656 59.4375 C 175.207031 61.109375 172.761719 63.859375 171.78125 67.390625 C 170.992188 70.214844 170.324219 74.515625 171.632812 78.960938 C 172.21875 80.960938 173.199219 82.777344 174.460938 84.210938 C 175.675781 85.589844 177.164062 86.59375 178.992188 87.265625 C 176.980469 88.523438 175.097656 90.265625 173.261719 92.566406 C 172.625 93.359375 171.703125 94.578125 171.054688 95.960938 C 170.515625 97.105469 170.03125 98.414062 169.582031 99.96875 C 167.789062 106.136719 167.984375 112.15625 170.132812 116.917969 C 171.359375 119.648438 173.277344 121.972656 175.679688 123.648438 C 178.027344 125.28125 180.835938 126.386719 184.261719 127.023438 C 187.4375 127.613281 190.714844 127.707031 193.5 127.722656 C 194.023438 127.722656 194.550781 127.726562 195.074219 127.726562 C 198.089844 127.726562 201.039062 127.679688 203.847656 127.59375 C 203.867188 127.59375 203.882812 127.589844 203.898438 127.589844 C 208.398438 127.449219 212.042969 127.148438 215.371094 126.648438 C 217.882812 126.269531 220.824219 125.722656 223.605469 124.535156 C 226.441406 123.324219 228.554688 121.621094 229.894531 119.476562 Z M 223.207031 123.601562 C 220.671875 124.683594 217.929688 125.234375 215.21875 125.644531 C 211.445312 126.210938 207.628906 126.457031 203.816406 126.578125 C 200.90625 126.667969 197.988281 126.710938 195.074219 126.710938 C 194.550781 126.710938 194.027344 126.710938 193.503906 126.707031 C 190.480469 126.691406 187.429688 126.582031 184.445312 126.027344 C 181.539062 125.484375 178.703125 124.511719 176.261719 122.816406 C 173.976562 121.222656 172.199219 119.039062 171.058594 116.5 C 168.78125 111.453125 169.039062 105.472656 170.554688 100.25 C 170.9375 98.9375 171.390625 97.628906 171.972656 96.394531 C 172.511719 95.246094 173.261719 94.1875 174.054688 93.199219 C 175.804688 91.007812 177.828125 89.039062 180.292969 87.679688 C 186.433594 84.289062 193.082031 81.828125 199.9375 80.34375 C 201.625 79.980469 203.324219 79.675781 205.035156 79.425781 C 205.613281 79.34375 205.402344 78.5 204.859375 78.5 C 204.832031 78.5 204.808594 78.5 204.78125 78.503906 C 197.535156 79.558594 190.460938 81.675781 183.839844 84.796875 C 182.628906 85.367188 181.421875 85.964844 180.242188 86.605469 C 178.28125 86.042969 176.585938 85.085938 175.222656 83.539062 C 173.992188 82.144531 173.128906 80.453125 172.605469 78.671875 C 171.558594 75.117188 171.769531 71.210938 172.757812 67.664062 C 173.703125 64.265625 176.109375 61.816406 179.273438 60.363281 C 182.769531 58.757812 186.773438 58.21875 190.558594 57.84375 C 195.246094 57.382812 199.960938 57.34375 204.660156 57.316406 C 205.007812 57.3125 205.355469 57.3125 205.707031 57.3125 C 209.167969 57.3125 212.667969 57.453125 216.011719 58.402344 C 219.628906 59.429688 222.800781 61.511719 224.945312 64.632812 C 226.910156 67.488281 228.050781 70.902344 228.425781 74.335938 C 228.808594 77.796875 228.460938 81.394531 227.132812 84.636719 C 226.4375 86.328125 225.453125 87.890625 224.191406 89.21875 C 222.6875 90.808594 220.890625 92.058594 219.046875 93.21875 C 218.132812 93.796875 217.25 94.421875 216.3125 94.960938 C 215.734375 94.921875 215.152344 94.90625 214.570312 94.90625 C 212.976562 94.90625 211.386719 95.039062 209.847656 95.28125 C 203.625 96.265625 197.578125 99.0625 192.898438 103.300781 C 191.792969 104.300781 190.765625 105.386719 189.820312 106.542969 C 189.523438 106.902344 189.84375 107.378906 190.183594 107.378906 C 190.289062 107.378906 190.402344 107.332031 190.496094 107.21875 C 194.378906 102.476562 199.644531 99.117188 205.476562 97.296875 C 208.367188 96.394531 211.507812 95.824219 214.625 95.824219 C 215.171875 95.824219 215.71875 95.84375 216.261719 95.878906 C 216.316406 95.90625 216.378906 95.921875 216.441406 95.921875 C 216.484375 95.921875 216.527344 95.914062 216.574219 95.898438 C 218.785156 96.078125 220.953125 96.570312 222.980469 97.464844 C 225.625 98.636719 227.914062 100.523438 229.332031 103.070312 C 230.691406 105.503906 231.179688 108.328125 231.078125 111.089844 C 230.984375 113.75 230.457031 116.652344 229.03125 118.9375 C 227.675781 121.113281 225.527344 122.605469 223.203125 123.597656 Z M 223.207031 123.601562 " fill-opacity="1" fill-rule="nonzero"/></g><path fill="#c8e1ff" d="M 231.082031 111.09375 C 231.183594 108.328125 230.691406 105.503906 229.332031 103.070312 C 227.917969 100.523438 225.625 98.636719 222.980469 97.464844 C 220.953125 96.570312 218.789062 96.078125 216.574219 95.902344 C 216.53125 95.914062 216.484375 95.921875 216.445312 95.921875 C 216.378906 95.921875 216.320312 95.90625 216.261719 95.878906 C 215.71875 95.84375 215.171875 95.828125 214.625 95.828125 C 211.511719 95.828125 208.371094 96.394531 205.476562 97.296875 C 199.648438 99.121094 194.382812 102.480469 190.496094 107.21875 C 190.402344 107.332031 190.292969 107.378906 190.183594 107.378906 C 189.84375 107.378906 189.527344 106.902344 189.820312 106.542969 C 190.765625 105.386719 191.792969 104.304688 192.898438 103.300781 C 197.578125 99.066406 203.625 96.265625 209.851562 95.28125 C 211.386719 95.039062 212.976562 94.90625 214.570312 94.90625 C 215.152344 94.90625 215.734375 94.925781 216.3125 94.960938 C 217.25 94.421875 218.136719 93.800781 219.046875 93.222656 C 220.890625 92.058594 222.6875 90.808594 224.195312 89.21875 C 225.453125 87.890625 226.4375 86.328125 227.132812 84.636719 C 228.460938 81.398438 228.808594 77.800781 228.429688 74.335938 C 228.050781 70.902344 226.910156 67.488281 224.945312 64.632812 C 222.800781 61.515625 219.632812 59.429688 216.011719 58.402344 C 212.667969 57.457031 209.167969 57.3125 205.707031 57.3125 C 205.359375 57.3125 205.011719 57.316406 204.664062 57.316406 C 199.960938 57.34375 195.246094 57.382812 190.5625 57.847656 C 186.773438 58.21875 182.769531 58.757812 179.273438 60.363281 C 176.109375 61.816406 173.707031 64.265625 172.757812 67.664062 C 171.769531 71.210938 171.558594 75.117188 172.605469 78.675781 C 173.128906 80.453125 173.992188 82.144531 175.222656 83.539062 C 176.585938 85.085938 178.285156 86.046875 180.242188 86.609375 C 181.421875 85.964844 182.628906 85.367188 183.839844 84.796875 C 190.460938 81.675781 197.535156 79.558594 204.78125 78.507812 C 204.808594 78.503906 204.835938 78.5 204.859375 78.5 C 205.402344 78.5 205.613281 79.34375 205.035156 79.429688 C 203.328125 79.675781 201.628906 79.980469 199.941406 80.34375 C 193.082031 81.828125 186.4375 84.289062 180.292969 87.679688 C 177.828125 89.042969 175.804688 91.011719 174.054688 93.199219 C 173.265625 94.1875 172.515625 95.246094 171.972656 96.394531 C 171.390625 97.632812 170.9375 98.941406 170.554688 100.253906 C 169.039062 105.472656 168.785156 111.453125 171.058594 116.5 C 172.199219 119.039062 173.976562 121.226562 176.261719 122.816406 C 178.703125 124.515625 181.542969 125.484375 184.445312 126.027344 C 187.429688 126.582031 190.480469 126.691406 193.503906 126.707031 C 194.03125 126.710938 194.550781 126.710938 195.078125 126.710938 C 197.992188 126.710938 200.90625 126.671875 203.820312 126.578125 C 207.632812 126.457031 211.445312 126.210938 215.21875 125.644531 C 217.933594 125.238281 220.675781 124.683594 223.207031 123.601562 C 225.53125 122.609375 227.679688 121.113281 229.035156 118.941406 C 230.460938 116.65625 230.988281 113.753906 231.082031 111.09375 Z M 231.082031 111.09375 " fill-opacity="1" fill-rule="nonzero"/><g clip-path="url(#f995b9b5f0)"><path fill="#1c4f74" d="M 261.167969 122.347656 C 266.851562 116.027344 267.28125 107.078125 267.238281 99.183594 C 267.195312 90.871094 266.191406 82.527344 264.257812 74.371094 C 265.671875 74.664062 267.113281 74.808594 268.558594 74.808594 C 271.796875 74.808594 274.976562 74.058594 277.75 72.640625 C 280.390625 71.292969 282.269531 69.628906 283.492188 67.550781 C 284.871094 65.195312 285.605469 62.253906 285.554688 59.273438 C 285.480469 54.449219 283.222656 49.621094 279.511719 46.359375 C 275.351562 42.699219 269.617188 41.601562 264.570312 40.855469 C 258.976562 40.035156 253.789062 39.632812 248.707031 39.632812 L 248.707031 40.734375 C 253.976562 40.734375 259.1875 41.175781 264.410156 41.945312 C 269.421875 42.683594 274.859375 43.734375 278.785156 47.1875 C 282.222656 50.210938 284.382812 54.703125 284.453125 59.289062 C 284.5 61.945312 283.890625 64.691406 282.542969 66.992188 C 281.292969 69.113281 279.417969 70.554688 277.25 71.660156 C 274.554688 73.035156 271.5625 73.707031 268.558594 73.707031 C 266.632812 73.707031 264.707031 73.433594 262.855469 72.890625 C 261.679688 72.546875 260.542969 72.097656 259.445312 71.554688 C 259.363281 71.511719 259.28125 71.492188 259.207031 71.492188 C 258.726562 71.492188 258.410156 72.191406 258.921875 72.445312 C 260.242188 73.101562 261.625 73.617188 263.035156 73.996094 C 265.042969 82.238281 266.089844 90.703125 266.136719 99.191406 C 266.179688 106.839844 265.742188 115.613281 260.347656 121.613281 C 257.84375 124.398438 254.3125 126.09375 250.601562 126.511719 C 250.117188 126.566406 249.625 126.59375 249.132812 126.59375 C 245.828125 126.59375 242.425781 125.390625 239.855469 123.378906 C 233.609375 118.492188 232.402344 109.804688 232.21875 102.410156 C 232.003906 93.839844 232.820312 85.25 234.621094 76.871094 C 234.828125 75.914062 235.054688 74.964844 235.285156 74.011719 C 235.46875 73.960938 235.652344 73.914062 235.839844 73.859375 C 237.066406 73.496094 238.257812 73.015625 239.40625 72.445312 C 239.917969 72.191406 239.601562 71.492188 239.121094 71.492188 C 239.046875 71.492188 238.964844 71.511719 238.882812 71.550781 C 236.035156 72.960938 232.886719 73.710938 229.734375 73.710938 C 227.960938 73.710938 226.1875 73.472656 224.464844 72.988281 C 222.136719 72.328125 219.753906 71.21875 217.921875 69.613281 L 217.921875 69.609375 C 216.019531 67.9375 214.871094 65.605469 214.292969 63.167969 C 213.144531 58.332031 214.433594 53.179688 217.519531 49.3125 C 220.644531 45.390625 225.339844 43.546875 230.136719 42.582031 C 235.644531 41.476562 241.324219 40.855469 246.9375 40.75 C 247.527344 40.738281 248.117188 40.734375 248.707031 40.734375 L 248.707031 39.632812 C 248.109375 39.632812 247.507812 39.640625 246.917969 39.648438 C 241.226562 39.757812 235.507812 40.382812 229.917969 41.503906 C 223.84375 42.726562 219.503906 45.054688 216.660156 48.625 C 213.308594 52.828125 212.019531 58.359375 213.222656 63.421875 C 213.90625 66.316406 215.269531 68.726562 217.160156 70.40625 C 217.171875 70.417969 217.183594 70.429688 217.195312 70.4375 C 219.464844 72.433594 222.238281 73.5 224.164062 74.046875 C 225.957031 74.554688 227.832031 74.808594 229.734375 74.808594 C 231.183594 74.808594 232.636719 74.660156 234.066406 74.363281 C 233.867188 75.195312 233.699219 75.929688 233.546875 76.636719 C 231.71875 85.121094 230.902344 93.800781 231.117188 102.433594 C 231.285156 109.222656 232.304688 118.867188 239.175781 124.246094 C 241.976562 126.4375 245.605469 127.695312 249.132812 127.695312 C 249.671875 127.695312 250.207031 127.664062 250.726562 127.605469 C 254.828125 127.140625 258.539062 125.273438 261.167969 122.347656 Z M 261.167969 122.347656 " fill-opacity="1" fill-rule="nonzero"/></g><path fill="#c8e1ff" d="M 246.9375 40.75 C 241.324219 40.855469 235.644531 41.476562 230.136719 42.582031 C 225.339844 43.546875 220.644531 45.394531 217.523438 49.3125 C 214.433594 53.179688 213.144531 58.332031 214.292969 63.167969 C 214.871094 65.605469 216.019531 67.9375 217.921875 69.609375 L 217.921875 69.613281 C 219.753906 71.21875 222.136719 72.328125 224.464844 72.988281 C 226.1875 73.472656 227.960938 73.710938 229.734375 73.710938 C 232.886719 73.710938 236.039062 72.960938 238.882812 71.550781 C 238.964844 71.511719 239.046875 71.492188 239.125 71.492188 C 239.601562 71.492188 239.917969 72.191406 239.40625 72.445312 C 238.257812 73.015625 237.066406 73.496094 235.839844 73.859375 C 235.652344 73.914062 235.46875 73.964844 235.285156 74.011719 C 235.054688 74.964844 234.828125 75.914062 234.621094 76.871094 C 232.820312 85.25 232.003906 93.839844 232.21875 102.410156 C 232.402344 109.804688 233.609375 118.492188 239.855469 123.378906 C 242.425781 125.390625 245.828125 126.59375 249.132812 126.59375 C 249.625 126.59375 250.117188 126.566406 250.601562 126.511719 C 254.3125 126.09375 257.84375 124.398438 260.347656 121.613281 C 265.742188 115.613281 266.179688 106.839844 266.136719 99.191406 C 266.089844 90.703125 265.042969 82.242188 263.035156 73.996094 C 261.625 73.617188 260.242188 73.101562 258.921875 72.445312 C 258.410156 72.191406 258.726562 71.496094 259.207031 71.496094 C 259.28125 71.496094 259.363281 71.511719 259.445312 71.554688 C 260.542969 72.097656 261.679688 72.546875 262.855469 72.890625 C 264.710938 73.433594 266.636719 73.707031 268.558594 73.707031 C 271.5625 73.707031 274.554688 73.039062 277.25 71.660156 C 279.417969 70.554688 281.292969 69.113281 282.542969 66.992188 C 283.890625 64.691406 284.5 61.945312 284.457031 59.289062 C 284.382812 54.703125 282.222656 50.210938 278.785156 47.1875 C 274.859375 43.734375 269.421875 42.683594 264.410156 41.945312 C 259.1875 41.175781 253.976562 40.734375 248.707031 40.734375 C 248.117188 40.734375 247.527344 40.738281 246.9375 40.75 Z M 246.9375 40.75 " fill-opacity="1" fill-rule="nonzero"/><g clip-path="url(#d624df147f)"><path fill="#1c4f74" d="M 300.429688 75.855469 C 300.429688 75.855469 300.429688 75.851562 300.429688 75.847656 C 300.421875 75.144531 300.417969 74.417969 300.417969 73.71875 C 300.410156 69.894531 300.398438 65.9375 299.171875 62.203125 C 298.359375 59.726562 297.078125 57.933594 295.367188 56.867188 C 292.796875 55.269531 289.59375 54.820312 287.355469 54.722656 C 287.023438 54.707031 286.683594 54.699219 286.355469 54.699219 C 283.585938 54.699219 281.0625 55.199219 278.851562 56.183594 C 276.324219 57.3125 274.527344 59.179688 273.511719 61.738281 C 272.554688 64.136719 272.257812 66.746094 272.058594 69.007812 C 271.917969 70.558594 271.789062 72.1875 271.660156 73.988281 C 271.347656 78.390625 271.167969 82.402344 271.105469 86.253906 C 271.042969 90.222656 271.054688 94.910156 271.621094 99.582031 C 271.980469 102.574219 272.476562 106.671875 275.296875 109.144531 C 275.4375 109.269531 275.582031 109.386719 275.734375 109.503906 C 273.066406 111.785156 270.503906 115.878906 271.695312 120.320312 C 272.589844 123.671875 275.503906 126.238281 279.484375 127.1875 C 280.863281 127.515625 282.34375 127.675781 284.007812 127.675781 C 284.605469 127.675781 285.234375 127.652344 285.882812 127.609375 C 288.117188 127.464844 290.164062 127.023438 291.972656 126.296875 C 295.816406 124.753906 298.617188 121.777344 299.472656 118.335938 C 300.292969 115.019531 299.167969 111.332031 296.597656 108.863281 C 298.449219 107.222656 299.539062 104.777344 299.914062 101.4375 C 300.089844 99.800781 300.226562 98.148438 300.324219 96.515625 C 300.664062 90.691406 300.570312 84.78125 300.476562 79.0625 C 300.460938 77.992188 300.445312 76.925781 300.429688 75.855469 Z M 298.476562 118.089844 C 297.632812 121.5 294.757812 124.074219 291.589844 125.347656 C 289.753906 126.082031 287.785156 126.460938 285.816406 126.589844 C 285.214844 126.628906 284.613281 126.648438 284.007812 126.648438 C 282.566406 126.648438 281.121094 126.523438 279.722656 126.191406 C 276.53125 125.433594 273.566406 123.359375 272.683594 120.058594 C 271.671875 116.285156 273.769531 112.394531 276.65625 110.066406 C 279.152344 111.589844 282.34375 112.082031 285.242188 112.082031 C 285.550781 112.082031 285.859375 112.074219 286.164062 112.066406 C 289.386719 111.949219 293.023438 111.292969 295.707031 109.429688 C 298.066406 111.578125 299.257812 114.949219 298.476562 118.089844 Z M 299.300781 96.457031 C 299.203125 98.082031 299.070312 99.703125 298.898438 101.320312 C 298.566406 104.25 297.644531 107.046875 295.082031 108.738281 C 293.136719 110.023438 290.757812 110.621094 288.472656 110.914062 C 287.414062 111.050781 286.34375 111.125 285.269531 111.125 C 284.105469 111.125 282.941406 111.039062 281.800781 110.84375 C 279.71875 110.492188 277.582031 109.792969 275.972656 108.375 C 273.503906 106.207031 273.007812 102.542969 272.636719 99.457031 C 272.109375 95.089844 272.058594 90.664062 272.128906 86.269531 C 272.195312 82.195312 272.394531 78.121094 272.683594 74.058594 C 272.800781 72.402344 272.929688 70.75 273.078125 69.097656 C 273.289062 66.738281 273.578125 64.332031 274.464844 62.117188 C 275.382812 59.804688 277.003906 58.132812 279.269531 57.121094 C 281.480469 56.132812 283.9375 55.722656 286.355469 55.722656 C 286.675781 55.722656 286.992188 55.730469 287.3125 55.746094 C 289.839844 55.855469 292.644531 56.378906 294.824219 57.734375 C 296.546875 58.808594 297.582031 60.644531 298.199219 62.523438 C 299.601562 66.789062 299.34375 71.441406 299.40625 75.875 L 299.40625 75.871094 C 299.5 82.730469 299.703125 89.601562 299.300781 96.457031 Z M 299.300781 96.457031 " fill-opacity="1" fill-rule="nonzero"/></g><path fill="#c8e1ff" d="M 295.707031 109.429688 C 293.023438 111.292969 289.386719 111.949219 286.164062 112.066406 C 285.859375 112.074219 285.550781 112.082031 285.242188 112.082031 C 282.34375 112.082031 279.152344 111.589844 276.65625 110.066406 C 273.769531 112.394531 271.671875 116.285156 272.683594 120.058594 C 273.566406 123.359375 276.53125 125.433594 279.722656 126.191406 C 281.121094 126.523438 282.566406 126.648438 284.007812 126.648438 C 284.613281 126.648438 285.214844 126.628906 285.816406 126.589844 C 287.785156 126.460938 289.753906 126.082031 291.589844 125.347656 C 294.757812 124.074219 297.632812 121.5 298.476562 118.089844 C 299.257812 114.949219 298.066406 111.578125 295.707031 109.429688 Z M 295.707031 109.429688 " fill-opacity="1" fill-rule="nonzero"/><path fill="#c8e1ff" d="M 299.40625 75.875 C 299.34375 71.441406 299.601562 66.789062 298.199219 62.523438 C 297.582031 60.644531 296.546875 58.808594 294.824219 57.734375 C 292.644531 56.378906 289.839844 55.855469 287.3125 55.746094 C 286.992188 55.730469 286.675781 55.722656 286.355469 55.722656 C 283.9375 55.722656 281.480469 56.132812 279.269531 57.121094 C 277.003906 58.132812 275.382812 59.804688 274.464844 62.117188 C 273.578125 64.332031 273.289062 66.738281 273.078125 69.097656 C 272.929688 70.75 272.800781 72.402344 272.683594 74.058594 C 272.394531 78.121094 272.195312 82.195312 272.128906 86.269531 C 272.058594 90.664062 272.109375 95.089844 272.636719 99.457031 C 273.011719 102.542969 273.503906 106.207031 275.972656 108.375 C 277.582031 109.792969 279.71875 110.492188 281.800781 110.84375 C 282.941406 111.039062 284.105469 111.125 285.269531 111.125 C 286.34375 111.125 287.414062 111.050781 288.472656 110.914062 C 290.757812 110.621094 293.136719 110.023438 295.082031 108.738281 C 297.644531 107.046875 298.570312 104.25 298.898438 101.320312 C 299.070312 99.703125 299.207031 98.082031 299.300781 96.457031 C 299.703125 89.605469 299.5 82.734375 299.40625 75.871094 Z M 299.40625 75.875 " fill-opacity="1" fill-rule="nonzero"/><g clip-path="url(#fd7c1ed062)"><path fill="#1c4f74" d="M 333.515625 61.382812 C 332.984375 55.542969 330.121094 50.875 325.863281 48.898438 C 324.332031 48.1875 322.644531 47.824219 320.84375 47.824219 C 317.847656 47.824219 314.703125 48.824219 311.992188 50.632812 C 307.335938 53.746094 304.722656 58.890625 303.351562 62.65625 C 301.511719 67.710938 300.753906 73.167969 300.253906 77.84375 C 299.035156 89.273438 299.464844 99.753906 301.53125 108.992188 C 303.710938 118.753906 307.640625 124.566406 313.539062 126.757812 C 315.207031 127.378906 316.878906 127.707031 318.378906 127.707031 C 318.898438 127.707031 319.410156 127.667969 319.894531 127.589844 C 322.097656 127.238281 324.265625 126.074219 326.164062 124.226562 C 329.226562 121.246094 331.214844 117.058594 332.222656 111.457031 C 332.597656 112.25 333 113.039062 333.429688 113.820312 C 335.332031 117.253906 337.421875 119.960938 339.824219 122.101562 C 342.542969 124.523438 345.675781 126.191406 348.878906 126.917969 C 350.199219 127.21875 351.578125 127.371094 352.976562 127.371094 C 354.84375 127.371094 356.707031 127.101562 358.515625 126.574219 C 361.605469 125.671875 364.25 124.054688 366.167969 121.894531 C 368.296875 119.503906 369.496094 116.296875 369.636719 112.625 C 369.894531 106.035156 366.976562 98.984375 361.628906 93.28125 C 359.515625 91.027344 357.089844 89.0625 354.421875 87.429688 C 361.042969 84.964844 366.316406 80.035156 368.992188 73.765625 C 371.691406 67.441406 371.398438 60.324219 368.222656 55.191406 C 366.648438 52.644531 364.4375 50.605469 361.828125 49.300781 C 359.867188 48.320312 357.671875 47.820312 355.300781 47.820312 C 354.640625 47.820312 353.960938 47.859375 353.277344 47.9375 C 347.714844 48.566406 342.210938 51.839844 337.773438 57.164062 C 336.207031 59.039062 334.816406 61.128906 333.617188 63.398438 C 333.609375 62.699219 333.574219 62.03125 333.515625 61.382812 Z M 338.648438 57.894531 C 342.375 53.425781 347.488281 49.738281 353.40625 49.074219 C 354.039062 49 354.671875 48.960938 355.300781 48.960938 C 357.378906 48.960938 359.421875 49.375 361.316406 50.320312 C 363.761719 51.542969 365.816406 53.46875 367.25 55.792969 C 370.476562 61.007812 370.300781 67.796875 367.941406 73.320312 C 365.195312 79.757812 359.597656 84.574219 352.984375 86.722656 C 351.300781 85.792969 349.542969 84.984375 347.722656 84.304688 C 346.824219 83.972656 345.917969 83.671875 344.996094 83.414062 C 344.941406 83.398438 344.890625 83.390625 344.839844 83.390625 C 344.289062 83.390625 344.101562 84.277344 344.710938 84.449219 C 350.808594 86.15625 356.457031 89.433594 360.796875 94.058594 C 365.425781 99 368.765625 105.679688 368.496094 112.578125 C 368.378906 115.707031 367.417969 118.773438 365.316406 121.136719 C 363.433594 123.253906 360.898438 124.6875 358.195312 125.476562 C 356.511719 125.96875 354.742188 126.226562 352.976562 126.226562 C 351.683594 126.226562 350.390625 126.089844 349.132812 125.804688 C 345.933594 125.078125 343.019531 123.421875 340.585938 121.25 C 338.054688 118.996094 336.066406 116.222656 334.429688 113.269531 C 332.652344 110.050781 331.304688 106.574219 330.539062 102.972656 C 330.355469 102.097656 330.203125 101.21875 330.097656 100.332031 C 330.054688 99.992188 329.761719 99.820312 329.492188 99.820312 C 329.226562 99.820312 328.980469 99.992188 329.019531 100.332031 C 329.40625 103.460938 330.238281 106.503906 331.417969 109.421875 C 331.398438 109.46875 331.371094 109.511719 331.363281 109.574219 C 330.671875 114.59375 329.09375 119.785156 325.371094 123.40625 C 323.8125 124.921875 321.882812 126.117188 319.714844 126.460938 C 319.273438 126.53125 318.828125 126.5625 318.378906 126.5625 C 316.867188 126.5625 315.320312 126.203125 313.9375 125.6875 C 307.035156 123.125 304.121094 115.34375 302.644531 108.742188 C 300.402344 98.703125 300.304688 88.152344 301.386719 77.964844 C 301.925781 72.921875 302.683594 67.828125 304.425781 63.046875 C 306.03125 58.636719 308.652344 54.238281 312.628906 51.582031 C 315 50 317.941406 48.964844 320.84375 48.964844 C 322.398438 48.964844 323.945312 49.261719 325.382812 49.929688 C 329.789062 51.980469 331.960938 56.871094 332.382812 61.484375 C 332.507812 62.898438 332.5 64.316406 332.414062 65.734375 C 332.410156 65.796875 332.425781 65.851562 332.4375 65.90625 C 331.746094 67.160156 331.101562 68.445312 330.5 69.75 C 330.101562 70.621094 329.726562 71.507812 329.378906 72.402344 C 329.226562 72.792969 329.546875 73.050781 329.875 73.050781 C 330.09375 73.050781 330.3125 72.941406 330.410156 72.6875 C 331.058594 71.019531 331.816406 69.398438 332.640625 67.808594 C 333.007812 67.097656 333.421875 66.40625 333.761719 65.675781 C 335.054688 62.894531 336.683594 60.253906 338.648438 57.894531 Z M 338.648438 57.894531 " fill-opacity="1" fill-rule="nonzero"/></g><path fill="#c8e1ff" d="M 330.410156 72.6875 C 330.3125 72.941406 330.09375 73.050781 329.875 73.050781 C 329.546875 73.050781 329.226562 72.792969 329.378906 72.402344 C 329.726562 71.507812 330.101562 70.621094 330.5 69.75 C 331.097656 68.445312 331.746094 67.160156 332.4375 65.90625 C 332.425781 65.851562 332.410156 65.796875 332.414062 65.734375 C 332.5 64.316406 332.507812 62.898438 332.382812 61.484375 C 331.960938 56.871094 329.789062 51.980469 325.382812 49.929688 C 323.945312 49.261719 322.398438 48.964844 320.84375 48.964844 C 317.941406 48.964844 315 50 312.628906 51.582031 C 308.652344 54.238281 306.03125 58.636719 304.425781 63.046875 C 302.683594 67.828125 301.925781 72.921875 301.386719 77.964844 C 300.300781 88.152344 300.402344 98.703125 302.644531 108.742188 C 304.121094 115.34375 307.035156 123.125 313.9375 125.6875 C 315.316406 126.203125 316.867188 126.5625 318.378906 126.5625 C 318.828125 126.5625 319.273438 126.53125 319.714844 126.460938 C 321.882812 126.117188 323.8125 124.921875 325.371094 123.40625 C 329.089844 119.785156 330.671875 114.59375 331.363281 109.574219 C 331.371094 109.511719 331.394531 109.46875 331.417969 109.421875 C 330.238281 106.503906 329.40625 103.460938 329.019531 100.332031 C 328.980469 99.992188 329.222656 99.820312 329.492188 99.820312 C 329.761719 99.820312 330.054688 99.992188 330.09375 100.332031 C 330.203125 101.21875 330.355469 102.097656 330.539062 102.972656 C 331.304688 106.574219 332.652344 110.050781 334.429688 113.269531 C 336.066406 116.222656 338.054688 118.996094 340.585938 121.25 C 343.019531 123.421875 345.933594 125.078125 349.128906 125.804688 C 350.390625 126.089844 351.683594 126.226562 352.976562 126.226562 C 354.742188 126.226562 356.511719 125.96875 358.195312 125.476562 C 360.898438 124.6875 363.433594 123.253906 365.3125 121.136719 C 367.417969 118.773438 368.378906 115.707031 368.496094 112.578125 C 368.765625 105.679688 365.425781 99 360.792969 94.058594 C 356.457031 89.433594 350.804688 86.15625 344.710938 84.449219 C 344.101562 84.277344 344.289062 83.390625 344.839844 83.390625 C 344.886719 83.390625 344.941406 83.398438 344.996094 83.414062 C 345.917969 83.671875 346.824219 83.972656 347.722656 84.304688 C 349.542969 84.984375 351.300781 85.792969 352.984375 86.722656 C 359.597656 84.570312 365.195312 79.757812 367.941406 73.320312 C 370.296875 67.796875 370.476562 61.007812 367.25 55.792969 C 365.816406 53.46875 363.761719 51.542969 361.316406 50.320312 C 359.421875 49.375 357.378906 48.960938 355.300781 48.960938 C 354.671875 48.960938 354.039062 49 353.40625 49.070312 C 347.488281 49.738281 342.375 53.425781 338.648438 57.894531 C 336.683594 60.25 335.050781 62.894531 333.761719 65.675781 C 333.421875 66.40625 333.007812 67.097656 332.640625 67.808594 C 331.816406 69.398438 331.058594 71.019531 330.410156 72.6875 Z M 330.410156 72.6875 " fill-opacity="1" fill-rule="nonzero"/></svg>