<svg xmlns="http://www.w3.org/2000/svg" xmlns:xlink="http://www.w3.org/1999/xlink" width="500" zoomAndPan="magnify" viewBox="0 0 375 374.999991" height="500" preserveAspectRatio="xMidYMid meet" version="1.0"><defs><clipPath id="b653cb3825"><path d="M 5.375 5.375 L 369.625 5.375 L 369.625 369.625 L 5.375 369.625 Z M 5.375 5.375 " clip-rule="nonzero"/></clipPath><clipPath id="029fa69e66"><path d="M 187.5 5.375 C 86.914062 5.375 5.375 86.914062 5.375 187.5 C 5.375 288.085938 86.914062 369.625 187.5 369.625 C 288.085938 369.625 369.625 288.085938 369.625 187.5 C 369.625 86.914062 288.085938 5.375 187.5 5.375 Z M 187.5 5.375 " clip-rule="nonzero"/></clipPath><radialGradient gradientTransform="matrix(1, 0, 0, 1, 5.376348, 5.37634)" gradientUnits="userSpaceOnUse" r="515.123946" cx="0" id="cb28c6d055" cy="0" fx="0" fy="0"><stop stop-opacity="1" stop-color="rgb(78.222656%, 88.050842%, 99.85199%)" offset="0"/><stop stop-opacity="1" stop-color="rgb(77.870178%, 87.753296%, 99.557495%)" offset="0.00390625"/><stop stop-opacity="1" stop-color="rgb(77.5177%, 87.457275%, 99.264526%)" offset="0.0078125"/><stop stop-opacity="1" stop-color="rgb(77.165222%, 87.159729%, 98.970032%)" offset="0.0117188"/><stop stop-opacity="1" stop-color="rgb(76.812744%, 86.862183%, 98.677063%)" offset="0.015625"/><stop stop-opacity="1" stop-color="rgb(76.460266%, 86.566162%, 98.382568%)" offset="0.0195312"/><stop stop-opacity="1" stop-color="rgb(76.107788%, 86.268616%, 98.0896%)" offset="0.0234375"/><stop stop-opacity="1" stop-color="rgb(75.75531%, 85.972595%, 97.795105%)" offset="0.0273438"/><stop stop-opacity="1" stop-color="rgb(75.404358%, 85.675049%, 97.502136%)" offset="0.03125"/><stop stop-opacity="1" stop-color="rgb(75.05188%, 85.379028%, 97.207642%)" offset="0.0351562"/><stop stop-opacity="1" stop-color="rgb(74.699402%, 85.081482%, 96.914673%)" offset="0.0390625"/><stop stop-opacity="1" stop-color="rgb(74.346924%, 84.785461%, 96.620178%)" offset="0.0429688"/><stop stop-opacity="1" stop-color="rgb(73.994446%, 84.487915%, 96.327209%)" offset="0.046875"/><stop stop-opacity="1" stop-color="rgb(73.641968%, 84.190369%, 96.032715%)" offset="0.0507812"/><stop stop-opacity="1" stop-color="rgb(73.28949%, 83.894348%, 95.739746%)" offset="0.0546875"/><stop stop-opacity="1" stop-color="rgb(72.937012%, 83.596802%, 95.445251%)" offset="0.0585938"/><stop stop-opacity="1" stop-color="rgb(72.584534%, 83.300781%, 95.152283%)" offset="0.0625"/><stop stop-opacity="1" stop-color="rgb(72.232056%, 83.003235%, 94.857788%)" offset="0.0664062"/><stop stop-opacity="1" stop-color="rgb(71.879578%, 82.707214%, 94.564819%)" offset="0.0703125"/><stop stop-opacity="1" stop-color="rgb(71.5271%, 82.409668%, 94.270325%)" offset="0.0742188"/><stop stop-opacity="1" stop-color="rgb(71.176147%, 82.112122%, 93.977356%)" offset="0.078125"/><stop stop-opacity="1" stop-color="rgb(70.823669%, 81.816101%, 93.682861%)" offset="0.0820312"/><stop stop-opacity="1" stop-color="rgb(70.471191%, 81.518555%, 93.389893%)" offset="0.0859375"/><stop stop-opacity="1" stop-color="rgb(70.118713%, 81.222534%, 93.095398%)" offset="0.0898438"/><stop stop-opacity="1" stop-color="rgb(69.766235%, 80.924988%, 92.802429%)" offset="0.09375"/><stop stop-opacity="1" stop-color="rgb(69.413757%, 80.628967%, 92.507935%)" offset="0.0976562"/><stop stop-opacity="1" stop-color="rgb(69.061279%, 80.331421%, 92.214966%)" offset="0.101562"/><stop stop-opacity="1" stop-color="rgb(68.708801%, 80.0354%, 91.920471%)" offset="0.105469"/><stop stop-opacity="1" stop-color="rgb(68.356323%, 79.737854%, 91.627502%)" offset="0.109375"/><stop stop-opacity="1" stop-color="rgb(68.003845%, 79.440308%, 91.333008%)" offset="0.113281"/><stop stop-opacity="1" stop-color="rgb(67.651367%, 79.144287%, 91.040039%)" offset="0.117188"/><stop stop-opacity="1" stop-color="rgb(67.300415%, 78.846741%, 90.745544%)" offset="0.121094"/><stop stop-opacity="1" stop-color="rgb(66.947937%, 78.55072%, 90.452576%)" offset="0.125"/><stop stop-opacity="1" stop-color="rgb(66.595459%, 78.253174%, 90.158081%)" offset="0.128906"/><stop stop-opacity="1" stop-color="rgb(66.242981%, 77.957153%, 89.865112%)" offset="0.132812"/><stop stop-opacity="1" stop-color="rgb(65.890503%, 77.659607%, 89.570618%)" offset="0.136719"/><stop stop-opacity="1" stop-color="rgb(65.538025%, 77.363586%, 89.277649%)" offset="0.140625"/><stop stop-opacity="1" stop-color="rgb(65.185547%, 77.06604%, 88.983154%)" offset="0.144531"/><stop stop-opacity="1" stop-color="rgb(64.833069%, 76.768494%, 88.690186%)" offset="0.148438"/><stop stop-opacity="1" stop-color="rgb(64.480591%, 76.472473%, 88.395691%)" offset="0.152344"/><stop stop-opacity="1" stop-color="rgb(64.128113%, 76.174927%, 88.102722%)" offset="0.15625"/><stop stop-opacity="1" stop-color="rgb(63.775635%, 75.878906%, 87.808228%)" offset="0.160156"/><stop stop-opacity="1" stop-color="rgb(63.424683%, 75.58136%, 87.513733%)" offset="0.164062"/><stop stop-opacity="1" stop-color="rgb(63.072205%, 75.285339%, 87.220764%)" offset="0.167969"/><stop stop-opacity="1" stop-color="rgb(62.719727%, 74.987793%, 86.92627%)" offset="0.171875"/><stop stop-opacity="1" stop-color="rgb(62.367249%, 74.690247%, 86.633301%)" offset="0.175781"/><stop stop-opacity="1" stop-color="rgb(62.014771%, 74.394226%, 86.338806%)" offset="0.179688"/><stop stop-opacity="1" stop-color="rgb(61.662292%, 74.09668%, 86.045837%)" offset="0.183594"/><stop stop-opacity="1" stop-color="rgb(61.309814%, 73.800659%, 85.751343%)" offset="0.1875"/><stop stop-opacity="1" stop-color="rgb(60.957336%, 73.503113%, 85.458374%)" offset="0.191406"/><stop stop-opacity="1" stop-color="rgb(60.604858%, 73.207092%, 85.163879%)" offset="0.195312"/><stop stop-opacity="1" stop-color="rgb(60.25238%, 72.909546%, 84.870911%)" offset="0.199219"/><stop stop-opacity="1" stop-color="rgb(59.899902%, 72.613525%, 84.576416%)" offset="0.203125"/><stop stop-opacity="1" stop-color="rgb(59.547424%, 72.315979%, 84.283447%)" offset="0.207031"/><stop stop-opacity="1" stop-color="rgb(59.196472%, 72.018433%, 83.988953%)" offset="0.210938"/><stop stop-opacity="1" stop-color="rgb(58.843994%, 71.722412%, 83.695984%)" offset="0.214844"/><stop stop-opacity="1" stop-color="rgb(58.491516%, 71.424866%, 83.401489%)" offset="0.21875"/><stop stop-opacity="1" stop-color="rgb(58.139038%, 71.128845%, 83.108521%)" offset="0.222656"/><stop stop-opacity="1" stop-color="rgb(57.78656%, 70.831299%, 82.814026%)" offset="0.226562"/><stop stop-opacity="1" stop-color="rgb(57.434082%, 70.535278%, 82.521057%)" offset="0.230469"/><stop stop-opacity="1" stop-color="rgb(57.081604%, 70.237732%, 82.226562%)" offset="0.234375"/><stop stop-opacity="1" stop-color="rgb(56.729126%, 69.941711%, 81.933594%)" offset="0.238281"/><stop stop-opacity="1" stop-color="rgb(56.376648%, 69.644165%, 81.639099%)" offset="0.242188"/><stop stop-opacity="1" stop-color="rgb(56.02417%, 69.346619%, 81.34613%)" offset="0.246094"/><stop stop-opacity="1" stop-color="rgb(55.671692%, 69.050598%, 81.051636%)" offset="0.25"/><stop stop-opacity="1" stop-color="rgb(55.32074%, 68.753052%, 80.758667%)" offset="0.253906"/><stop stop-opacity="1" stop-color="rgb(54.968262%, 68.457031%, 80.464172%)" offset="0.257812"/><stop stop-opacity="1" stop-color="rgb(54.615784%, 68.159485%, 80.171204%)" offset="0.261719"/><stop stop-opacity="1" stop-color="rgb(54.263306%, 67.863464%, 79.876709%)" offset="0.265625"/><stop stop-opacity="1" stop-color="rgb(53.910828%, 67.565918%, 79.58374%)" offset="0.269531"/><stop stop-opacity="1" stop-color="rgb(53.55835%, 67.268372%, 79.289246%)" offset="0.273438"/><stop stop-opacity="1" stop-color="rgb(53.205872%, 66.972351%, 78.996277%)" offset="0.277344"/><stop stop-opacity="1" stop-color="rgb(52.853394%, 66.674805%, 78.701782%)" offset="0.28125"/><stop stop-opacity="1" stop-color="rgb(52.500916%, 66.378784%, 78.408813%)" offset="0.285156"/><stop stop-opacity="1" stop-color="rgb(52.148438%, 66.081238%, 78.114319%)" offset="0.289062"/><stop stop-opacity="1" stop-color="rgb(51.795959%, 65.785217%, 77.82135%)" offset="0.292969"/><stop stop-opacity="1" stop-color="rgb(51.445007%, 65.487671%, 77.526855%)" offset="0.296875"/><stop stop-opacity="1" stop-color="rgb(51.092529%, 65.19165%, 77.233887%)" offset="0.300781"/><stop stop-opacity="1" stop-color="rgb(50.740051%, 64.894104%, 76.939392%)" offset="0.304688"/><stop stop-opacity="1" stop-color="rgb(50.387573%, 64.596558%, 76.646423%)" offset="0.308594"/><stop stop-opacity="1" stop-color="rgb(50.035095%, 64.300537%, 76.351929%)" offset="0.3125"/><stop stop-opacity="1" stop-color="rgb(49.682617%, 64.002991%, 76.05896%)" offset="0.316406"/><stop stop-opacity="1" stop-color="rgb(49.330139%, 63.70697%, 75.764465%)" offset="0.320312"/><stop stop-opacity="1" stop-color="rgb(48.977661%, 63.409424%, 75.469971%)" offset="0.324219"/><stop stop-opacity="1" stop-color="rgb(48.625183%, 63.113403%, 75.177002%)" offset="0.328125"/><stop stop-opacity="1" stop-color="rgb(48.272705%, 62.815857%, 74.882507%)" offset="0.332031"/><stop stop-opacity="1" stop-color="rgb(47.920227%, 62.519836%, 74.589539%)" offset="0.335938"/><stop stop-opacity="1" stop-color="rgb(47.567749%, 62.22229%, 74.295044%)" offset="0.339844"/><stop stop-opacity="1" stop-color="rgb(47.216797%, 61.924744%, 74.002075%)" offset="0.34375"/><stop stop-opacity="1" stop-color="rgb(46.864319%, 61.628723%, 73.707581%)" offset="0.347656"/><stop stop-opacity="1" stop-color="rgb(46.511841%, 61.331177%, 73.414612%)" offset="0.351562"/><stop stop-opacity="1" stop-color="rgb(46.159363%, 61.035156%, 73.120117%)" offset="0.355469"/><stop stop-opacity="1" stop-color="rgb(45.806885%, 60.73761%, 72.827148%)" offset="0.359375"/><stop stop-opacity="1" stop-color="rgb(45.454407%, 60.441589%, 72.532654%)" offset="0.363281"/><stop stop-opacity="1" stop-color="rgb(45.101929%, 60.144043%, 72.239685%)" offset="0.367188"/><stop stop-opacity="1" stop-color="rgb(44.749451%, 59.846497%, 71.94519%)" offset="0.371094"/><stop stop-opacity="1" stop-color="rgb(44.396973%, 59.550476%, 71.652222%)" offset="0.375"/><stop stop-opacity="1" stop-color="rgb(44.044495%, 59.25293%, 71.357727%)" offset="0.378906"/><stop stop-opacity="1" stop-color="rgb(43.692017%, 58.956909%, 71.064758%)" offset="0.382812"/><stop stop-opacity="1" stop-color="rgb(43.341064%, 58.659363%, 70.770264%)" offset="0.386719"/><stop stop-opacity="1" stop-color="rgb(42.988586%, 58.363342%, 70.477295%)" offset="0.390625"/><stop stop-opacity="1" stop-color="rgb(42.636108%, 58.065796%, 70.1828%)" offset="0.394531"/><stop stop-opacity="1" stop-color="rgb(42.28363%, 57.769775%, 69.889832%)" offset="0.398438"/><stop stop-opacity="1" stop-color="rgb(41.931152%, 57.472229%, 69.595337%)" offset="0.402344"/><stop stop-opacity="1" stop-color="rgb(41.578674%, 57.174683%, 69.302368%)" offset="0.40625"/><stop stop-opacity="1" stop-color="rgb(41.226196%, 56.878662%, 69.007874%)" offset="0.410156"/><stop stop-opacity="1" stop-color="rgb(40.873718%, 56.581116%, 68.714905%)" offset="0.414062"/><stop stop-opacity="1" stop-color="rgb(40.52124%, 56.285095%, 68.42041%)" offset="0.417969"/><stop stop-opacity="1" stop-color="rgb(40.168762%, 55.987549%, 68.127441%)" offset="0.421875"/><stop stop-opacity="1" stop-color="rgb(39.816284%, 55.691528%, 67.832947%)" offset="0.425781"/><stop stop-opacity="1" stop-color="rgb(39.463806%, 55.393982%, 67.539978%)" offset="0.429688"/><stop stop-opacity="1" stop-color="rgb(39.112854%, 55.097961%, 67.245483%)" offset="0.433594"/><stop stop-opacity="1" stop-color="rgb(38.760376%, 54.800415%, 66.952515%)" offset="0.4375"/><stop stop-opacity="1" stop-color="rgb(38.407898%, 54.502869%, 66.65802%)" offset="0.441406"/><stop stop-opacity="1" stop-color="rgb(38.05542%, 54.206848%, 66.365051%)" offset="0.445312"/><stop stop-opacity="1" stop-color="rgb(37.702942%, 53.909302%, 66.070557%)" offset="0.449219"/><stop stop-opacity="1" stop-color="rgb(37.350464%, 53.613281%, 65.777588%)" offset="0.453125"/><stop stop-opacity="1" stop-color="rgb(36.997986%, 53.315735%, 65.483093%)" offset="0.457031"/><stop stop-opacity="1" stop-color="rgb(36.645508%, 53.019714%, 65.190125%)" offset="0.460938"/><stop stop-opacity="1" stop-color="rgb(36.29303%, 52.722168%, 64.89563%)" offset="0.464844"/><stop stop-opacity="1" stop-color="rgb(35.940552%, 52.424622%, 64.602661%)" offset="0.46875"/><stop stop-opacity="1" stop-color="rgb(35.588074%, 52.128601%, 64.308167%)" offset="0.472656"/><stop stop-opacity="1" stop-color="rgb(35.237122%, 51.831055%, 64.015198%)" offset="0.476562"/><stop stop-opacity="1" stop-color="rgb(34.884644%, 51.535034%, 63.720703%)" offset="0.480469"/><stop stop-opacity="1" stop-color="rgb(34.532166%, 51.237488%, 63.427734%)" offset="0.484375"/><stop stop-opacity="1" stop-color="rgb(34.179688%, 50.941467%, 63.13324%)" offset="0.488281"/><stop stop-opacity="1" stop-color="rgb(33.827209%, 50.643921%, 62.838745%)" offset="0.492188"/><stop stop-opacity="1" stop-color="rgb(33.474731%, 50.3479%, 62.545776%)" offset="0.496094"/><stop stop-opacity="1" stop-color="rgb(33.248901%, 50.108337%, 62.290955%)" offset="0.5"/><stop stop-opacity="1" stop-color="rgb(33.148193%, 49.928284%, 62.075806%)" offset="0.503906"/><stop stop-opacity="1" stop-color="rgb(33.047485%, 49.74823%, 61.862183%)" offset="0.507812"/><stop stop-opacity="1" stop-color="rgb(32.946777%, 49.56665%, 61.647034%)" offset="0.511719"/><stop stop-opacity="1" stop-color="rgb(32.846069%, 49.386597%, 61.431885%)" offset="0.515625"/><stop stop-opacity="1" stop-color="rgb(32.745361%, 49.206543%, 61.216736%)" offset="0.519531"/><stop stop-opacity="1" stop-color="rgb(32.644653%, 49.026489%, 61.001587%)" offset="0.523438"/><stop stop-opacity="1" stop-color="rgb(32.543945%, 48.84491%, 60.787964%)" offset="0.527344"/><stop stop-opacity="1" stop-color="rgb(32.443237%, 48.664856%, 60.572815%)" offset="0.53125"/><stop stop-opacity="1" stop-color="rgb(32.342529%, 48.484802%, 60.357666%)" offset="0.535156"/><stop stop-opacity="1" stop-color="rgb(32.240295%, 48.304749%, 60.142517%)" offset="0.539062"/><stop stop-opacity="1" stop-color="rgb(32.139587%, 48.123169%, 59.927368%)" offset="0.542969"/><stop stop-opacity="1" stop-color="rgb(32.038879%, 47.943115%, 59.713745%)" offset="0.546875"/><stop stop-opacity="1" stop-color="rgb(31.938171%, 47.763062%, 59.498596%)" offset="0.550781"/><stop stop-opacity="1" stop-color="rgb(31.837463%, 47.581482%, 59.283447%)" offset="0.554688"/><stop stop-opacity="1" stop-color="rgb(31.736755%, 47.401428%, 59.068298%)" offset="0.558594"/><stop stop-opacity="1" stop-color="rgb(31.636047%, 47.221375%, 58.853149%)" offset="0.5625"/><stop stop-opacity="1" stop-color="rgb(31.535339%, 47.041321%, 58.639526%)" offset="0.566406"/><stop stop-opacity="1" stop-color="rgb(31.434631%, 46.859741%, 58.424377%)" offset="0.570312"/><stop stop-opacity="1" stop-color="rgb(31.333923%, 46.679688%, 58.209229%)" offset="0.574219"/><stop stop-opacity="1" stop-color="rgb(31.233215%, 46.499634%, 57.99408%)" offset="0.578125"/><stop stop-opacity="1" stop-color="rgb(31.132507%, 46.31958%, 57.778931%)" offset="0.582031"/><stop stop-opacity="1" stop-color="rgb(31.031799%, 46.138%, 57.565308%)" offset="0.585938"/><stop stop-opacity="1" stop-color="rgb(30.931091%, 45.957947%, 57.350159%)" offset="0.589844"/><stop stop-opacity="1" stop-color="rgb(30.830383%, 45.777893%, 57.13501%)" offset="0.59375"/><stop stop-opacity="1" stop-color="rgb(30.729675%, 45.597839%, 56.919861%)" offset="0.597656"/><stop stop-opacity="1" stop-color="rgb(30.628967%, 45.41626%, 56.704712%)" offset="0.601562"/><stop stop-opacity="1" stop-color="rgb(30.528259%, 45.236206%, 56.491089%)" offset="0.605469"/><stop stop-opacity="1" stop-color="rgb(30.427551%, 45.056152%, 56.27594%)" offset="0.609375"/><stop stop-opacity="1" stop-color="rgb(30.326843%, 44.874573%, 56.060791%)" offset="0.613281"/><stop stop-opacity="1" stop-color="rgb(30.226135%, 44.694519%, 55.845642%)" offset="0.617188"/><stop stop-opacity="1" stop-color="rgb(30.123901%, 44.514465%, 55.630493%)" offset="0.621094"/><stop stop-opacity="1" stop-color="rgb(30.023193%, 44.334412%, 55.41687%)" offset="0.625"/><stop stop-opacity="1" stop-color="rgb(29.922485%, 44.152832%, 55.201721%)" offset="0.628906"/><stop stop-opacity="1" stop-color="rgb(29.821777%, 43.972778%, 54.986572%)" offset="0.632812"/><stop stop-opacity="1" stop-color="rgb(29.721069%, 43.792725%, 54.771423%)" offset="0.636719"/><stop stop-opacity="1" stop-color="rgb(29.620361%, 43.612671%, 54.556274%)" offset="0.640625"/><stop stop-opacity="1" stop-color="rgb(29.519653%, 43.431091%, 54.342651%)" offset="0.644531"/><stop stop-opacity="1" stop-color="rgb(29.418945%, 43.251038%, 54.127502%)" offset="0.648438"/><stop stop-opacity="1" stop-color="rgb(29.318237%, 43.070984%, 53.912354%)" offset="0.652344"/><stop stop-opacity="1" stop-color="rgb(29.217529%, 42.889404%, 53.697205%)" offset="0.65625"/><stop stop-opacity="1" stop-color="rgb(29.116821%, 42.709351%, 53.482056%)" offset="0.660156"/><stop stop-opacity="1" stop-color="rgb(29.016113%, 42.529297%, 53.268433%)" offset="0.664062"/><stop stop-opacity="1" stop-color="rgb(28.915405%, 42.349243%, 53.053284%)" offset="0.667969"/><stop stop-opacity="1" stop-color="rgb(28.814697%, 42.167664%, 52.838135%)" offset="0.671875"/><stop stop-opacity="1" stop-color="rgb(28.713989%, 41.98761%, 52.622986%)" offset="0.675781"/><stop stop-opacity="1" stop-color="rgb(28.613281%, 41.807556%, 52.407837%)" offset="0.679688"/><stop stop-opacity="1" stop-color="rgb(28.512573%, 41.627502%, 52.194214%)" offset="0.683594"/><stop stop-opacity="1" stop-color="rgb(28.411865%, 41.445923%, 51.979065%)" offset="0.6875"/><stop stop-opacity="1" stop-color="rgb(28.311157%, 41.265869%, 51.763916%)" offset="0.691406"/><stop stop-opacity="1" stop-color="rgb(28.210449%, 41.085815%, 51.548767%)" offset="0.695312"/><stop stop-opacity="1" stop-color="rgb(28.108215%, 40.904236%, 51.333618%)" offset="0.699219"/><stop stop-opacity="1" stop-color="rgb(28.007507%, 40.724182%, 51.119995%)" offset="0.703125"/><stop stop-opacity="1" stop-color="rgb(27.906799%, 40.544128%, 50.904846%)" offset="0.707031"/><stop stop-opacity="1" stop-color="rgb(27.806091%, 40.364075%, 50.689697%)" offset="0.710938"/><stop stop-opacity="1" stop-color="rgb(27.705383%, 40.182495%, 50.474548%)" offset="0.714844"/><stop stop-opacity="1" stop-color="rgb(27.604675%, 40.002441%, 50.259399%)" offset="0.71875"/><stop stop-opacity="1" stop-color="rgb(27.503967%, 39.822388%, 50.045776%)" offset="0.722656"/><stop stop-opacity="1" stop-color="rgb(27.403259%, 39.642334%, 49.830627%)" offset="0.726562"/><stop stop-opacity="1" stop-color="rgb(27.302551%, 39.460754%, 49.615479%)" offset="0.730469"/><stop stop-opacity="1" stop-color="rgb(27.201843%, 39.280701%, 49.40033%)" offset="0.734375"/><stop stop-opacity="1" stop-color="rgb(27.101135%, 39.100647%, 49.185181%)" offset="0.738281"/><stop stop-opacity="1" stop-color="rgb(27.000427%, 38.919067%, 48.971558%)" offset="0.742188"/><stop stop-opacity="1" stop-color="rgb(26.899719%, 38.739014%, 48.756409%)" offset="0.746094"/><stop stop-opacity="1" stop-color="rgb(26.799011%, 38.55896%, 48.54126%)" offset="0.75"/><stop stop-opacity="1" stop-color="rgb(26.698303%, 38.378906%, 48.326111%)" offset="0.753906"/><stop stop-opacity="1" stop-color="rgb(26.597595%, 38.197327%, 48.110962%)" offset="0.757812"/><stop stop-opacity="1" stop-color="rgb(26.496887%, 38.017273%, 47.897339%)" offset="0.761719"/><stop stop-opacity="1" stop-color="rgb(26.396179%, 37.837219%, 47.68219%)" offset="0.765625"/><stop stop-opacity="1" stop-color="rgb(26.295471%, 37.657166%, 47.467041%)" offset="0.769531"/><stop stop-opacity="1" stop-color="rgb(26.194763%, 37.475586%, 47.251892%)" offset="0.773438"/><stop stop-opacity="1" stop-color="rgb(26.094055%, 37.295532%, 47.036743%)" offset="0.777344"/><stop stop-opacity="1" stop-color="rgb(25.991821%, 37.115479%, 46.82312%)" offset="0.78125"/><stop stop-opacity="1" stop-color="rgb(25.891113%, 36.933899%, 46.607971%)" offset="0.785156"/><stop stop-opacity="1" stop-color="rgb(25.790405%, 36.753845%, 46.392822%)" offset="0.789062"/><stop stop-opacity="1" stop-color="rgb(25.689697%, 36.573792%, 46.177673%)" offset="0.792969"/><stop stop-opacity="1" stop-color="rgb(25.588989%, 36.393738%, 45.962524%)" offset="0.796875"/><stop stop-opacity="1" stop-color="rgb(25.488281%, 36.212158%, 45.748901%)" offset="0.800781"/><stop stop-opacity="1" stop-color="rgb(25.387573%, 36.032104%, 45.533752%)" offset="0.804688"/><stop stop-opacity="1" stop-color="rgb(25.286865%, 35.852051%, 45.318604%)" offset="0.808594"/><stop stop-opacity="1" stop-color="rgb(25.186157%, 35.671997%, 45.103455%)" offset="0.8125"/><stop stop-opacity="1" stop-color="rgb(25.085449%, 35.490417%, 44.888306%)" offset="0.816406"/><stop stop-opacity="1" stop-color="rgb(24.984741%, 35.310364%, 44.674683%)" offset="0.820312"/><stop stop-opacity="1" stop-color="rgb(24.884033%, 35.13031%, 44.459534%)" offset="0.824219"/><stop stop-opacity="1" stop-color="rgb(24.783325%, 34.94873%, 44.244385%)" offset="0.828125"/><stop stop-opacity="1" stop-color="rgb(24.682617%, 34.768677%, 44.029236%)" offset="0.832031"/><stop stop-opacity="1" stop-color="rgb(24.581909%, 34.588623%, 43.814087%)" offset="0.835938"/><stop stop-opacity="1" stop-color="rgb(24.481201%, 34.408569%, 43.600464%)" offset="0.839844"/><stop stop-opacity="1" stop-color="rgb(24.380493%, 34.22699%, 43.385315%)" offset="0.84375"/><stop stop-opacity="1" stop-color="rgb(24.279785%, 34.046936%, 43.170166%)" offset="0.847656"/><stop stop-opacity="1" stop-color="rgb(24.179077%, 33.866882%, 42.955017%)" offset="0.851562"/><stop stop-opacity="1" stop-color="rgb(24.078369%, 33.686829%, 42.739868%)" offset="0.855469"/><stop stop-opacity="1" stop-color="rgb(23.977661%, 33.505249%, 42.526245%)" offset="0.859375"/><stop stop-opacity="1" stop-color="rgb(23.875427%, 33.325195%, 42.311096%)" offset="0.863281"/><stop stop-opacity="1" stop-color="rgb(23.774719%, 33.145142%, 42.095947%)" offset="0.867188"/><stop stop-opacity="1" stop-color="rgb(23.674011%, 32.963562%, 41.880798%)" offset="0.871094"/><stop stop-opacity="1" stop-color="rgb(23.573303%, 32.783508%, 41.665649%)" offset="0.875"/><stop stop-opacity="1" stop-color="rgb(23.472595%, 32.603455%, 41.452026%)" offset="0.878906"/><stop stop-opacity="1" stop-color="rgb(23.371887%, 32.423401%, 41.236877%)" offset="0.882812"/><stop stop-opacity="1" stop-color="rgb(23.271179%, 32.241821%, 41.021729%)" offset="0.886719"/><stop stop-opacity="1" stop-color="rgb(23.170471%, 32.061768%, 40.80658%)" offset="0.890625"/><stop stop-opacity="1" stop-color="rgb(23.069763%, 31.881714%, 40.591431%)" offset="0.894531"/><stop stop-opacity="1" stop-color="rgb(22.969055%, 31.70166%, 40.377808%)" offset="0.898438"/><stop stop-opacity="1" stop-color="rgb(22.868347%, 31.520081%, 40.162659%)" offset="0.902344"/><stop stop-opacity="1" stop-color="rgb(22.767639%, 31.340027%, 39.94751%)" offset="0.90625"/><stop stop-opacity="1" stop-color="rgb(22.666931%, 31.159973%, 39.732361%)" offset="0.910156"/><stop stop-opacity="1" stop-color="rgb(22.566223%, 30.978394%, 39.517212%)" offset="0.914062"/><stop stop-opacity="1" stop-color="rgb(22.465515%, 30.79834%, 39.303589%)" offset="0.917969"/><stop stop-opacity="1" stop-color="rgb(22.364807%, 30.618286%, 39.08844%)" offset="0.921875"/><stop stop-opacity="1" stop-color="rgb(22.264099%, 30.438232%, 38.873291%)" offset="0.925781"/><stop stop-opacity="1" stop-color="rgb(22.163391%, 30.256653%, 38.658142%)" offset="0.929688"/><stop stop-opacity="1" stop-color="rgb(22.062683%, 30.076599%, 38.442993%)" offset="0.933594"/><stop stop-opacity="1" stop-color="rgb(21.961975%, 29.896545%, 38.22937%)" offset="0.9375"/><stop stop-opacity="1" stop-color="rgb(21.861267%, 29.716492%, 38.014221%)" offset="0.941406"/><stop stop-opacity="1" stop-color="rgb(21.759033%, 29.534912%, 37.799072%)" offset="0.945312"/><stop stop-opacity="1" stop-color="rgb(21.658325%, 29.354858%, 37.583923%)" offset="0.949219"/><stop stop-opacity="1" stop-color="rgb(21.557617%, 29.174805%, 37.368774%)" offset="0.953125"/><stop stop-opacity="1" stop-color="rgb(21.456909%, 28.993225%, 37.155151%)" offset="0.957031"/><stop stop-opacity="1" stop-color="rgb(21.356201%, 28.813171%, 36.940002%)" offset="0.960938"/><stop stop-opacity="1" stop-color="rgb(21.255493%, 28.633118%, 36.724854%)" offset="0.964844"/><stop stop-opacity="1" stop-color="rgb(21.154785%, 28.453064%, 36.509705%)" offset="0.96875"/><stop stop-opacity="1" stop-color="rgb(21.054077%, 28.271484%, 36.294556%)" offset="0.972656"/><stop stop-opacity="1" stop-color="rgb(20.953369%, 28.091431%, 36.080933%)" offset="0.976562"/><stop stop-opacity="1" stop-color="rgb(20.852661%, 27.911377%, 35.865784%)" offset="0.980469"/><stop stop-opacity="1" stop-color="rgb(20.751953%, 27.731323%, 35.650635%)" offset="0.984375"/><stop stop-opacity="1" stop-color="rgb(20.651245%, 27.549744%, 35.435486%)" offset="0.988281"/><stop stop-opacity="1" stop-color="rgb(20.550537%, 27.36969%, 35.220337%)" offset="0.992188"/><stop stop-opacity="1" stop-color="rgb(20.449829%, 27.189636%, 35.006714%)" offset="0.996094"/><stop stop-opacity="1" stop-color="rgb(20.399475%, 27.099609%, 34.899902%)" offset="1"/></radialGradient><clipPath id="e43eb5fc4b"><path d="M 48 51 L 139 51 L 139 130 L 48 130 Z M 48 51 " clip-rule="nonzero"/></clipPath><clipPath id="b99413fe36"><path d="M 37.503906 91.078125 L 115.847656 36.882812 L 186.304688 138.730469 L 107.960938 192.925781 Z M 37.503906 91.078125 " clip-rule="nonzero"/></clipPath><clipPath id="abae8d2747"><path d="M 37.503906 91.078125 L 115.847656 36.882812 L 186.304688 138.730469 L 107.960938 192.925781 Z M 37.503906 91.078125 " clip-rule="nonzero"/></clipPath><clipPath id="be05df8f78"><path d="M 101 118 L 157 118 L 157 161 L 101 161 Z M 101 118 " clip-rule="nonzero"/></clipPath><clipPath id="a5458d4232"><path d="M 37.503906 91.078125 L 115.847656 36.882812 L 186.304688 138.730469 L 107.960938 192.925781 Z M 37.503906 91.078125 " clip-rule="nonzero"/></clipPath><clipPath id="6451b72d79"><path d="M 37.503906 91.078125 L 115.847656 36.882812 L 186.304688 138.730469 L 107.960938 192.925781 Z M 37.503906 91.078125 " clip-rule="nonzero"/></clipPath><clipPath id="c116688675"><path d="M 80 97 L 161 97 L 161 157 L 80 157 Z M 80 97 " clip-rule="nonzero"/></clipPath><clipPath id="41ea7c48a6"><path d="M 37.503906 91.078125 L 115.847656 36.882812 L 186.304688 138.730469 L 107.960938 192.925781 Z M 37.503906 91.078125 " clip-rule="nonzero"/></clipPath><clipPath id="53ca6e6bc0"><path d="M 37.503906 91.078125 L 115.847656 36.882812 L 186.304688 138.730469 L 107.960938 192.925781 Z M 37.503906 91.078125 " clip-rule="nonzero"/></clipPath><clipPath id="797fd1dd93"><path d="M 123 140 L 153 140 L 153 167 L 123 167 Z M 123 140 " clip-rule="nonzero"/></clipPath><clipPath id="a21f2226d4"><path d="M 37.503906 91.078125 L 115.847656 36.882812 L 186.304688 138.730469 L 107.960938 192.925781 Z M 37.503906 91.078125 " clip-rule="nonzero"/></clipPath><clipPath id="b88a2022d0"><path d="M 37.503906 91.078125 L 115.847656 36.882812 L 186.304688 138.730469 L 107.960938 192.925781 Z M 37.503906 91.078125 " clip-rule="nonzero"/></clipPath><clipPath id="86c746a10c"><path d="M 106.492188 133.972656 L 250 133.972656 L 250 303.71875 L 106.492188 303.71875 Z M 106.492188 133.972656 " clip-rule="nonzero"/></clipPath><clipPath id="a67ac3035d"><path d="M 240 134 L 309.714844 134 L 309.714844 303.71875 L 240 303.71875 Z M 240 134 " clip-rule="nonzero"/></clipPath></defs><g clip-path="url(#b653cb3825)"><g clip-path="url(#029fa69e66)"><path fill="url(#cb28c6d055)" d="M 5.375 5.375 L 5.375 369.625 L 369.625 369.625 L 369.625 5.375 Z M 5.375 5.375 " fill-rule="nonzero"/></g></g><g clip-path="url(#e43eb5fc4b)"><g clip-path="url(#b99413fe36)"><g clip-path="url(#abae8d2747)"><path fill="#1c4f74" d="M 55.472656 110.835938 C 57 110.582031 57.675781 110.113281 58.375 109.527344 L 75.007812 128.652344 C 76.777344 130.632812 79.96875 130.324219 81.230469 127.953125 C 86.699219 118.0625 94.363281 109.457031 103.585938 102.675781 C 113.117188 96.484375 123.914062 92.417969 135.121094 90.671875 C 137.738281 90.261719 139.199219 87.449219 137.96875 85.097656 L 125.941406 62.789062 C 126.734375 62.339844 127.410156 61.871094 128.1875 60.535156 C 129.316406 58.550781 129.316406 55.945312 127.9375 54.097656 C 125.902344 51.300781 121.851562 50.800781 119.15625 53.265625 C 117.242188 54.988281 116.722656 57.855469 117.789062 60.117188 C 118.546875 61.796875 120.003906 62.890625 121.703125 63.316406 L 116.5625 83.089844 C 116.003906 85.175781 113.808594 86.195312 111.828125 85.363281 L 92.546875 76.878906 C 94.0625 73.429688 93.695312 69.277344 91.195312 66.101562 C 87.929688 61.957031 81.925781 60.804688 77.40625 63.53125 C 77.203125 63.671875 77 63.8125 76.863281 63.90625 C 76.660156 64.046875 76.457031 64.1875 76.320312 64.28125 C 72.175781 67.546875 71.070312 73.617188 73.863281 78.09375 C 75.957031 81.550781 79.710938 83.359375 83.472656 83.15625 L 84.546875 104.238281 C 84.695312 106.335938 82.898438 108.078125 80.75 107.867188 L 60.320312 105.683594 C 60.496094 104.058594 59.988281 102.308594 58.707031 100.890625 C 56.914062 99.027344 54.097656 98.574219 51.8125 99.753906 C 48.621094 101.363281 47.660156 105.328125 49.492188 108.265625 C 50.785156 110.277344 53.105469 111.171875 55.472656 110.835938 Z M 55.472656 110.835938 " fill-opacity="1" fill-rule="nonzero"/></g></g></g><g clip-path="url(#be05df8f78)"><g clip-path="url(#a5458d4232)"><g clip-path="url(#6451b72d79)"><path fill="#1c4f74" d="M 150.417969 118.429688 C 140.136719 118.035156 129.613281 120.910156 120.539062 127.183594 C 111.46875 133.460938 105.066406 142.292969 101.808594 152.054688 C 101.089844 154.054688 101.535156 156.148438 102.613281 157.703125 C 103.503906 158.992188 104.914062 160.015625 106.632812 160.332031 C 109.726562 160.894531 112.707031 159.128906 113.730469 156.121094 C 116.183594 148.816406 120.9375 142.226562 127.707031 137.542969 C 134.476562 132.859375 142.316406 130.738281 150.019531 131.015625 C 153.125 131.167969 155.851562 128.882812 156.460938 125.859375 C 156.773438 124.140625 156.3125 122.460938 155.421875 121.171875 C 154.34375 119.617188 152.589844 118.527344 150.417969 118.429688 Z M 150.417969 118.429688 " fill-opacity="1" fill-rule="nonzero"/></g></g></g><g clip-path="url(#c116688675)"><g clip-path="url(#41ea7c48a6)"><g clip-path="url(#53ca6e6bc0)"><path fill="#1c4f74" d="M 154.191406 97.398438 C 138.503906 96.140625 122.289062 100.050781 108.410156 109.652344 C 94.53125 119.25 85.15625 133.046875 80.800781 148.167969 C 80.21875 150.074219 80.6875 152.054688 81.714844 153.542969 C 82.652344 154.898438 84.015625 155.855469 85.734375 156.167969 C 88.941406 156.753906 92.082031 154.78125 92.941406 151.683594 C 96.449219 139.246094 104.179688 127.992188 115.621094 120.078125 C 127.0625 112.160156 140.367188 108.964844 153.195312 110 C 156.464844 110.238281 159.351562 108.042969 159.933594 104.835938 C 160.25 103.117188 159.785156 101.4375 158.894531 100.152344 C 157.867188 98.660156 156.179688 97.527344 154.191406 97.398438 Z M 154.191406 97.398438 " fill-opacity="1" fill-rule="nonzero"/></g></g></g><g clip-path="url(#797fd1dd93)"><g clip-path="url(#a21f2226d4)"><g clip-path="url(#b88a2022d0)"><path fill="#1c4f74" d="M 145 140.695312 C 140.832031 141.175781 136.699219 142.730469 133.046875 145.261719 C 129.320312 147.835938 126.476562 151.105469 124.554688 154.839844 C 122.566406 158.617188 124.859375 163.238281 128.984375 163.988281 L 142.269531 166.410156 C 143.988281 166.722656 145.667969 166.257812 146.957031 165.367188 C 148.308594 164.433594 149.269531 163.066406 149.582031 161.351562 L 152 148.0625 C 152.820312 143.894531 149.308594 140.117188 145 140.695312 Z M 145 140.695312 " fill-opacity="1" fill-rule="nonzero"/></g></g></g><g clip-path="url(#86c746a10c)"><path fill="#1c4f74" d="M 112.910156 274.410156 C 116.273438 282.625 121.589844 289.414062 128.28125 294.046875 C 136.8125 299.949219 146.691406 301.625 155.230469 302.488281 C 162.410156 303.214844 169.972656 303.566406 178.351562 303.566406 C 179.710938 303.566406 181.109375 303.558594 182.515625 303.539062 C 193.164062 303.394531 203.03125 302.140625 211.839844 299.804688 C 219.640625 297.738281 226.554688 294.875 232.390625 291.292969 C 239.503906 286.929688 244.519531 281.707031 247.300781 275.78125 C 250.714844 268.511719 250.574219 259.890625 246.9375 253.277344 C 243.589844 247.191406 237.429688 242.828125 229.433594 240.816406 C 231.425781 239.316406 233.273438 237.542969 234.90625 235.453125 C 239.121094 230.066406 241.113281 223.359375 240.367188 217.054688 C 239.550781 210.179688 235.464844 203.65625 229.339844 199.34375 C 235.660156 196.476562 240.480469 192.230469 243.71875 186.667969 C 248.574219 178.328125 249.292969 167.773438 245.652344 158.4375 C 242.222656 149.648438 235.332031 143.050781 225.730469 139.355469 C 218.019531 136.390625 208.972656 134.738281 197.265625 134.152344 C 194.890625 134.035156 192.421875 133.972656 189.933594 133.972656 C 182.097656 133.972656 173.5 134.566406 163.644531 135.785156 C 155.414062 136.804688 146.71875 138.136719 138.828125 142.136719 C 131.992188 145.597656 126.164062 150.75 121.972656 157.042969 C 116.648438 165.039062 114.105469 174.359375 111.957031 183.226562 C 109.472656 193.488281 107.855469 204.398438 107.148438 215.65625 C 106.507812 226.003906 106.613281 236.90625 107.464844 248.066406 C 108.03125 255.511719 109.164062 265.238281 112.914062 274.410156 Z M 109.566406 215.808594 C 110.246094 205.027344 111.769531 194.300781 114.3125 183.796875 C 116.441406 175.003906 118.921875 165.996094 123.988281 158.386719 C 127.992188 152.375 133.484375 147.554688 139.921875 144.296875 C 147.445312 140.484375 155.664062 139.214844 163.941406 138.191406 C 172.558594 137.125 181.246094 136.398438 189.933594 136.398438 C 192.339844 136.398438 194.742188 136.453125 197.144531 136.574219 C 206.441406 137.039062 216.117188 138.257812 224.859375 141.617188 C 233.28125 144.859375 240.070312 150.800781 243.390625 159.316406 C 246.707031 167.8125 246.234375 177.523438 241.625 185.449219 C 237.289062 192.890625 230.132812 197.203125 221.980469 199.382812 C 214.847656 201.289062 207.328125 202.21875 199.863281 202.21875 C 196.527344 202.21875 193.199219 202.03125 189.921875 201.664062 C 184.878906 201.09375 179.910156 199.90625 175.226562 197.9375 C 175.074219 197.875 174.929688 197.847656 174.800781 197.847656 C 173.765625 197.847656 173.433594 199.640625 174.617188 200.136719 C 182.277344 203.351562 190.652344 204.460938 198.964844 204.460938 C 201.652344 204.460938 204.335938 204.347656 206.984375 204.148438 C 212.65625 203.722656 218.316406 202.8125 223.789062 201.25 C 224.730469 200.980469 225.660156 200.679688 226.574219 200.355469 C 226.648438 200.441406 226.738281 200.519531 226.847656 200.589844 C 232.710938 204.289062 237.128906 210.355469 237.960938 217.335938 C 238.660156 223.273438 236.648438 229.292969 233 233.960938 C 224.660156 244.617188 209.910156 246.550781 197.238281 246.550781 C 197.085938 246.550781 196.933594 246.550781 196.78125 246.546875 C 188.4375 246.519531 179.785156 245.996094 171.863281 243.210938 C 171.726562 243.160156 171.597656 243.140625 171.476562 243.140625 C 170.378906 243.140625 170.015625 244.96875 171.257812 245.40625 C 178.800781 248.0625 187 248.648438 194.949219 248.804688 C 195.804688 248.820312 196.664062 248.832031 197.523438 248.832031 C 204.28125 248.832031 211.152344 248.25 217.632812 246.347656 C 220.664062 245.453125 223.605469 244.21875 226.320312 242.625 C 233.773438 243.953125 241.046875 247.597656 244.8125 254.441406 C 248.191406 260.585938 248.058594 268.464844 245.109375 274.75 C 242.191406 280.96875 236.894531 285.6875 231.121094 289.226562 C 224.980469 292.996094 218.167969 295.621094 211.21875 297.460938 C 201.875 299.9375 192.128906 300.984375 182.480469 301.113281 C 181.105469 301.132812 179.726562 301.140625 178.351562 301.140625 C 170.714844 301.140625 163.058594 300.84375 155.472656 300.074219 C 146.304688 299.148438 137.375 297.390625 129.660156 292.050781 C 123.058594 287.480469 118.179688 280.886719 115.152344 273.492188 C 111.824219 265.351562 110.542969 256.597656 109.878906 247.878906 C 109.0625 237.210938 108.902344 226.488281 109.566406 215.804688 Z M 109.566406 215.808594 " fill-opacity="1" fill-rule="nonzero"/></g><path fill="#c8e1ff" d="M 115.15625 273.492188 C 118.183594 280.890625 123.058594 287.484375 129.660156 292.054688 C 137.375 297.390625 146.304688 299.152344 155.472656 300.074219 C 163.058594 300.84375 170.714844 301.144531 178.351562 301.144531 C 179.730469 301.144531 181.105469 301.132812 182.484375 301.117188 C 192.132812 300.984375 201.878906 299.9375 211.21875 297.460938 C 218.167969 295.621094 224.980469 293 231.121094 289.230469 C 236.894531 285.6875 242.191406 280.96875 245.109375 274.75 C 248.0625 268.464844 248.195312 260.589844 244.8125 254.445312 C 241.046875 247.597656 233.773438 243.953125 226.320312 242.628906 C 223.605469 244.21875 220.664062 245.457031 217.632812 246.347656 C 211.152344 248.25 204.28125 248.832031 197.523438 248.832031 C 196.664062 248.832031 195.804688 248.824219 194.949219 248.804688 C 187 248.648438 178.804688 248.0625 171.257812 245.410156 C 170.019531 244.972656 170.378906 243.140625 171.476562 243.140625 C 171.597656 243.140625 171.726562 243.164062 171.863281 243.210938 C 179.785156 246 188.441406 246.519531 196.78125 246.550781 C 196.933594 246.550781 197.085938 246.550781 197.238281 246.550781 C 209.914062 246.550781 224.660156 244.617188 233 233.960938 C 236.652344 229.292969 238.660156 223.273438 237.960938 217.339844 C 237.128906 210.359375 232.710938 204.289062 226.847656 200.59375 C 226.738281 200.523438 226.652344 200.441406 226.574219 200.355469 C 225.664062 200.683594 224.734375 200.980469 223.789062 201.25 C 218.320312 202.8125 212.65625 203.722656 206.984375 204.148438 C 204.335938 204.347656 201.652344 204.464844 198.964844 204.464844 C 190.652344 204.464844 182.277344 203.351562 174.621094 200.140625 C 173.433594 199.640625 173.765625 197.847656 174.800781 197.847656 C 174.933594 197.847656 175.074219 197.878906 175.226562 197.941406 C 179.910156 199.90625 184.878906 201.097656 189.921875 201.667969 C 193.203125 202.035156 196.527344 202.21875 199.863281 202.21875 C 207.332031 202.21875 214.851562 201.289062 221.980469 199.382812 C 230.132812 197.207031 237.289062 192.894531 241.625 185.449219 C 246.234375 177.527344 246.707031 167.816406 243.390625 159.320312 C 240.070312 150.804688 233.28125 144.859375 224.859375 141.617188 C 216.117188 138.257812 206.441406 137.039062 197.144531 136.574219 C 194.742188 136.453125 192.339844 136.398438 189.933594 136.398438 C 181.246094 136.398438 172.558594 137.125 163.945312 138.191406 C 155.664062 139.21875 147.445312 140.488281 139.921875 144.300781 C 133.488281 147.558594 127.992188 152.378906 123.988281 158.390625 C 118.921875 166 116.445312 175.003906 114.3125 183.796875 C 111.769531 194.300781 110.246094 205.03125 109.570312 215.808594 C 108.902344 226.492188 109.066406 237.214844 109.878906 247.882812 C 110.546875 256.601562 111.828125 265.351562 115.15625 273.496094 Z M 115.15625 273.492188 " fill-opacity="1" fill-rule="nonzero"/><g clip-path="url(#a67ac3035d)"><path fill="#1c4f74" d="M 309.097656 183.15625 C 309.097656 183.148438 309.097656 183.140625 309.097656 183.132812 C 309.074219 181.5 309.070312 179.816406 309.070312 178.1875 C 309.050781 169.300781 309.027344 160.113281 306.179688 151.4375 C 304.289062 145.683594 301.3125 141.515625 297.335938 139.035156 C 291.371094 135.328125 283.921875 134.28125 278.726562 134.054688 C 277.953125 134.023438 277.167969 134.003906 276.398438 134.003906 C 269.964844 134.003906 264.101562 135.164062 258.972656 137.453125 C 253.097656 140.074219 248.925781 144.414062 246.5625 150.355469 C 244.339844 155.925781 243.65625 161.992188 243.1875 167.238281 C 242.863281 170.84375 242.5625 174.628906 242.265625 178.808594 C 241.539062 189.039062 241.117188 198.363281 240.972656 207.308594 C 240.828125 216.527344 240.859375 227.417969 242.167969 238.269531 C 243.011719 245.21875 244.164062 254.738281 250.710938 260.488281 C 251.035156 260.773438 251.375 261.050781 251.722656 261.324219 C 245.527344 266.617188 239.578125 276.132812 242.339844 286.453125 C 244.425781 294.238281 251.191406 300.199219 260.441406 302.398438 C 263.648438 303.160156 267.082031 303.53125 270.949219 303.53125 C 272.335938 303.53125 273.800781 303.484375 275.300781 303.382812 C 280.492188 303.042969 285.253906 302.015625 289.449219 300.332031 C 298.378906 296.746094 304.890625 289.832031 306.875 281.84375 C 308.785156 274.136719 306.167969 265.570312 300.199219 259.832031 C 304.5 256.019531 307.03125 250.34375 307.902344 242.578125 C 308.3125 238.78125 308.628906 234.941406 308.851562 231.148438 C 309.644531 217.621094 309.425781 203.886719 309.210938 190.601562 C 309.171875 188.117188 309.132812 185.636719 309.097656 183.152344 Z M 304.5625 281.269531 C 302.601562 289.183594 295.917969 295.167969 288.5625 298.125 C 284.296875 299.835938 279.722656 300.710938 275.144531 301.011719 C 273.753906 301.101562 272.351562 301.152344 270.949219 301.152344 C 267.597656 301.152344 264.238281 300.859375 260.992188 300.085938 C 253.578125 298.324219 246.691406 293.507812 244.636719 285.835938 C 242.289062 277.074219 247.164062 268.03125 253.871094 262.632812 L 253.871094 262.625 C 259.664062 266.167969 267.085938 267.308594 273.8125 267.308594 C 274.535156 267.308594 275.25 267.296875 275.957031 267.269531 C 283.445312 267.003906 291.890625 265.480469 298.125 261.148438 C 303.609375 266.140625 306.371094 273.96875 304.5625 281.269531 Z M 306.476562 231.011719 C 306.253906 234.785156 305.941406 238.550781 305.539062 242.3125 C 304.773438 249.113281 302.628906 255.613281 296.671875 259.546875 C 292.152344 262.523438 286.632812 263.914062 281.316406 264.597656 C 278.863281 264.914062 276.371094 265.085938 273.882812 265.085938 C 271.175781 265.085938 268.472656 264.882812 265.820312 264.433594 C 260.980469 263.617188 256.015625 261.988281 252.28125 258.699219 C 246.542969 253.664062 245.398438 245.148438 244.53125 237.984375 C 243.304688 227.835938 243.191406 217.550781 243.351562 207.347656 C 243.503906 197.878906 243.96875 188.417969 244.640625 178.976562 C 244.910156 175.132812 245.210938 171.289062 245.558594 167.449219 C 246.046875 161.972656 246.722656 156.378906 248.773438 151.234375 C 250.90625 145.867188 254.679688 141.976562 259.945312 139.628906 C 265.074219 137.335938 270.785156 136.382812 276.402344 136.382812 C 277.144531 136.382812 277.886719 136.402344 278.625 136.433594 C 284.496094 136.6875 291.011719 137.910156 296.078125 141.054688 C 300.078125 143.546875 302.480469 147.8125 303.917969 152.179688 C 307.171875 162.089844 306.578125 172.894531 306.71875 183.191406 L 306.71875 183.1875 C 306.933594 199.125 307.410156 215.089844 306.476562 231.011719 Z M 306.476562 231.011719 " fill-opacity="1" fill-rule="nonzero"/></g><path fill="#c8e1ff" d="M 298.125 261.148438 C 291.890625 265.476562 283.445312 267.003906 275.957031 267.269531 C 275.25 267.296875 274.539062 267.308594 273.8125 267.308594 C 267.085938 267.308594 259.664062 266.167969 253.875 262.625 L 253.875 262.632812 C 247.164062 268.03125 242.289062 277.074219 244.640625 285.835938 C 246.691406 293.507812 253.578125 298.324219 260.992188 300.085938 C 264.238281 300.859375 267.601562 301.152344 270.949219 301.152344 C 272.355469 301.152344 273.757812 301.101562 275.144531 301.011719 C 279.722656 300.710938 284.296875 299.835938 288.5625 298.125 C 295.917969 295.167969 302.601562 289.183594 304.5625 281.269531 C 306.375 273.96875 303.609375 266.140625 298.125 261.148438 Z M 298.125 261.148438 " fill-opacity="1" fill-rule="nonzero"/><path fill="#c8e1ff" d="M 306.71875 183.191406 C 306.578125 172.894531 307.171875 162.089844 303.917969 152.179688 C 302.484375 147.8125 300.078125 143.546875 296.078125 141.054688 C 291.011719 137.90625 284.496094 136.6875 278.625 136.433594 C 277.886719 136.402344 277.144531 136.382812 276.402344 136.382812 C 270.785156 136.382812 265.074219 137.335938 259.945312 139.628906 C 254.679688 141.976562 250.910156 145.867188 248.777344 151.234375 C 246.722656 156.378906 246.046875 161.972656 245.558594 167.449219 C 245.214844 171.289062 244.914062 175.132812 244.640625 178.976562 C 243.96875 188.417969 243.503906 197.878906 243.351562 207.347656 C 243.191406 217.550781 243.304688 227.835938 244.53125 237.984375 C 245.398438 245.148438 246.546875 253.664062 252.28125 258.699219 C 256.019531 261.988281 260.980469 263.617188 265.820312 264.433594 C 268.472656 264.882812 271.175781 265.089844 273.882812 265.089844 C 276.375 265.089844 278.867188 264.914062 281.316406 264.597656 C 286.632812 263.914062 292.152344 262.523438 296.675781 259.546875 C 302.628906 255.613281 304.773438 249.113281 305.539062 242.3125 C 305.941406 238.550781 306.253906 234.785156 306.476562 231.011719 C 307.410156 215.089844 306.933594 199.128906 306.71875 183.1875 Z M 306.71875 183.191406 " fill-opacity="1" fill-rule="nonzero"/></svg>